{
 "cells": [
  {
   "cell_type": "code",
   "execution_count": 5,
   "metadata": {},
   "outputs": [],
   "source": [
    "import cv2\n",
    "import numpy as np\n",
    "import os\n",
    "from scipy.ndimage import label as scipy_label"
   ]
  },
  {
   "cell_type": "markdown",
   "metadata": {},
   "source": [
    "# 3_pexels-cottonbro-5329478_2160p"
   ]
  },
  {
   "cell_type": "code",
   "execution_count": 6,
   "metadata": {},
   "outputs": [],
   "source": [
    "def resize_padding(image, size=(1920,1080)):\n",
    "    \"\"\"\n",
    "    Resize and pad an image to a given size\n",
    "    \"\"\"\n",
    "    h, w = image.shape[:2]\n",
    "    height_ratio = size[1] / h\n",
    "    width_ratio = size[0] / w\n",
    "    ratio = min(height_ratio, width_ratio)\n",
    "    new_h = int(h * ratio)\n",
    "    new_w = int(w * ratio)\n",
    "    image = cv2.resize(image, (new_w, new_h))\n",
    "    delta_w = size[0] - new_w\n",
    "    delta_h = size[1] - new_h\n",
    "    top, bottom = delta_h//2, delta_h-(delta_h//2)\n",
    "    left, right = delta_w//2, delta_w-(delta_w//2)\n",
    "    color = [0, 0, 0]\n",
    "    # copy make border\n",
    "    new_image = cv2.copyMakeBorder(image, top, bottom, left, right, cv2.BORDER_CONSTANT, value=color)\n",
    "    return new_image\n",
    "\n",
    "def postprocess(mask):\n",
    "    regions, n_regions = scipy_label(mask > 0.1)\n",
    "    if n_regions > 1:\n",
    "        max_area = 0\n",
    "        all_areas = np.zeros((n_regions + 1,))\n",
    "        for i in range(n_regions):\n",
    "            all_areas[i+1] = (regions == (i+1)).sum()\n",
    "            max_area = max(max_area, all_areas[i+1])\n",
    "        \n",
    "        if max_area == 0:\n",
    "            return\n",
    "        \n",
    "        if max_area * 1.0 / mask.size < 0.01:\n",
    "            mask[:] = 0\n",
    "            return\n",
    "\n",
    "        # Get location of areas\n",
    "        max_area_id = all_areas.argmax()\n",
    "        largest_mask = regions == max_area_id\n",
    "\n",
    "        # Remove noise\n",
    "        for i in range(n_regions):\n",
    "            if i + 1 == max_area_id: continue\n",
    "            object_mask = regions == (i+1)\n",
    "            if all_areas[i+1] < max_area * 0.1:\n",
    "                mask[object_mask] = 0"
   ]
  },
  {
   "cell_type": "code",
   "execution_count": 4,
   "metadata": {},
   "outputs": [],
   "source": [
    "# Prepare video with each mask overlayed\n",
    "video_name = \"3_pexels-cottonbro-5329478_2160p\"\n",
    "data_dir = \"/home/chuongh/vm2m/data/vis/real_qual\"\n",
    "outdir = \"/home/chuongh/vm2m/data/vis/website\"\n",
    "\n",
    "frame_names = sorted(os.listdir(os.path.join(data_dir, \"images\", video_name)))\n",
    "\n",
    "colors = [(255, 0, 255), (255, 255, 0), (0, 165, 255), (255, 255, 255)]\n",
    "for frame_name in frame_names:\n",
    "    if int(frame_name.replace(\".jpg\", \"\")) < 130 or int(frame_name.replace(\".jpg\", \"\")) > 270:\n",
    "        continue\n",
    "    frame = cv2.imread(os.path.join(data_dir, \"images\", video_name, frame_name))\n",
    "    # load all masks\n",
    "    mask_names = os.listdir(os.path.join(data_dir, \"masks\", video_name, frame_name.replace(\".jpg\", \"\")))\n",
    "    mask_names = sorted(mask_names)\n",
    "    all_overlays = []\n",
    "    \n",
    "    for i, mask_name in enumerate(mask_names):\n",
    "        mask = cv2.imread(os.path.join(data_dir, \"masks\", video_name, frame_name.replace(\".jpg\", \"\"), mask_name), cv2.IMREAD_GRAYSCALE)\n",
    "        color = colors[i]\n",
    "        color = np.array(color)[None, None]\n",
    "        mask = mask[:, :, None]\n",
    "        mask = (mask > 0) * color\n",
    "        overlay = frame.copy()\n",
    "        overlay[mask > 0] = mask[mask > 0] * 0.5 + overlay[mask > 0] * 0.5\n",
    "        all_overlays.append(overlay)\n",
    "    all_overlays = np.concatenate(all_overlays, axis=1)\n",
    "    all_overlays = resize_padding(all_overlays)\n",
    "\n",
    "    out_path = os.path.join(outdir, video_name, \"video\", frame_name)\n",
    "    os.makedirs(os.path.dirname(out_path), exist_ok=True)\n",
    "    cv2.imwrite(out_path, all_overlays)"
   ]
  },
  {
   "cell_type": "code",
   "execution_count": 11,
   "metadata": {},
   "outputs": [],
   "source": [
    "def process_frames(frame_names, video_name, lower, upper, subdir, outdir):\n",
    "    for frame_name in frame_names:\n",
    "        if int(frame_name.replace(\".jpg\", \"\")) < lower or int(frame_name.replace(\".jpg\", \"\")) > upper:\n",
    "            continue\n",
    "        frame = cv2.imread(os.path.join(data_dir, \"images\", video_name, frame_name))\n",
    "        # load all masks\n",
    "        mask_names = os.listdir(os.path.join(data_dir, subdir, video_name, frame_name.replace(\".jpg\", \"\")))\n",
    "        mask_names = sorted(mask_names)\n",
    "        all_overlays = []\n",
    "        \n",
    "        for i, mask_name in enumerate(mask_names):\n",
    "            mask = cv2.imread(os.path.join(data_dir, subdir, video_name, frame_name.replace(\".jpg\", \"\"), mask_name), cv2.IMREAD_GRAYSCALE)\n",
    "            mask = mask / 255.0\n",
    "            postprocess(mask)\n",
    "            mask = mask[:, :, None]\n",
    "            green = np.zeros_like(frame)\n",
    "            green[:, :, 1] = 255\n",
    "            overlay = frame * mask + green * (1.0 - mask)\n",
    "            all_overlays.append(overlay)\n",
    "        all_overlays = np.concatenate(all_overlays, axis=1)\n",
    "        all_overlays = resize_padding(all_overlays)\n",
    "\n",
    "        out_path = os.path.join(outdir, video_name, subdir, frame_name)\n",
    "        os.makedirs(os.path.dirname(out_path), exist_ok=True)\n",
    "        cv2.imwrite(out_path, all_overlays)\n",
    "# InstMatt\n"
   ]
  },
  {
   "cell_type": "code",
   "execution_count": 12,
   "metadata": {},
   "outputs": [],
   "source": [
    "process_frames(frame_names, video_name, 130, 270, \"instmatt\", outdir)"
   ]
  },
  {
   "cell_type": "code",
   "execution_count": 13,
   "metadata": {},
   "outputs": [],
   "source": [
    "process_frames(frame_names, video_name, 130, 270, \"sparsemat_hr\", outdir)"
   ]
  },
  {
   "cell_type": "code",
   "execution_count": 14,
   "metadata": {},
   "outputs": [],
   "source": [
    "process_frames(frame_names, video_name, 130, 270, \"mgm_single_tcvom\", outdir)"
   ]
  },
  {
   "cell_type": "code",
   "execution_count": 15,
   "metadata": {},
   "outputs": [],
   "source": [
    "process_frames(frame_names, video_name, 130, 270, \"mgm_stacked_tcvom\", outdir)"
   ]
  },
  {
   "cell_type": "code",
   "execution_count": 16,
   "metadata": {},
   "outputs": [],
   "source": [
    "process_frames(frame_names, video_name, 130, 270, \"ours_tokens\", outdir)"
   ]
  },
  {
   "cell_type": "markdown",
   "metadata": {},
   "source": [
    "# 2_pexels-artem-podrez-6003997_2160p"
   ]
  },
  {
   "cell_type": "code",
   "execution_count": 20,
   "metadata": {},
   "outputs": [],
   "source": [
    "# Prepare video with each mask overlayed\n",
    "video_name = \"2_pexels-artem-podrez-6003997_2160p\"\n",
    "data_dir = \"/home/chuongh/vm2m/data/vis/real_qual\"\n",
    "outdir = \"/home/chuongh/vm2m/data/vis/website\"\n",
    "\n",
    "frame_names = sorted(os.listdir(os.path.join(data_dir, \"images\", video_name)))\n",
    "\n",
    "colors = [(255, 0, 255), (255, 255, 0), (0, 165, 255), (255, 255, 255)]\n",
    "for frame_name in frame_names:\n",
    "    if int(frame_name.replace(\".jpg\", \"\")) < 0 or int(frame_name.replace(\".jpg\", \"\")) > 175:\n",
    "        continue\n",
    "    frame = cv2.imread(os.path.join(data_dir, \"images\", video_name, frame_name))\n",
    "    # load all masks\n",
    "    mask_names = os.listdir(os.path.join(data_dir, \"masks\", video_name, frame_name.replace(\".jpg\", \"\")))\n",
    "    mask_names = sorted(mask_names)\n",
    "    all_overlays = []\n",
    "    \n",
    "    for i, mask_name in enumerate(mask_names):\n",
    "        mask = cv2.imread(os.path.join(data_dir, \"masks\", video_name, frame_name.replace(\".jpg\", \"\"), mask_name), cv2.IMREAD_GRAYSCALE)\n",
    "        color = colors[i]\n",
    "        color = np.array(color)[None, None]\n",
    "        mask = mask[:, :, None]\n",
    "        mask = (mask > 0) * color\n",
    "        overlay = frame.copy()\n",
    "        overlay[mask > 0] = mask[mask > 0] * 0.7 + overlay[mask > 0] * 0.3\n",
    "        all_overlays.append(overlay)\n",
    "    all_overlays = np.concatenate(all_overlays, axis=1)\n",
    "    all_overlays = resize_padding(all_overlays)\n",
    "\n",
    "    out_path = os.path.join(outdir, video_name, \"video\", frame_name)\n",
    "    os.makedirs(os.path.dirname(out_path), exist_ok=True)\n",
    "    cv2.imwrite(out_path, all_overlays)"
   ]
  },
  {
   "cell_type": "code",
   "execution_count": 19,
   "metadata": {},
   "outputs": [],
   "source": [
    "process_frames(frame_names, video_name, 0, 175, \"instmatt\", outdir)"
   ]
  },
  {
   "cell_type": "code",
   "execution_count": 21,
   "metadata": {},
   "outputs": [],
   "source": [
    "process_frames(frame_names, video_name, 0, 175, \"sparsemat_hr\", outdir)"
   ]
  },
  {
   "cell_type": "code",
   "execution_count": 22,
   "metadata": {},
   "outputs": [],
   "source": [
    "process_frames(frame_names, video_name, 0, 175, \"mgm_single_tcvom\", outdir)"
   ]
  },
  {
   "cell_type": "code",
   "execution_count": 24,
   "metadata": {},
   "outputs": [],
   "source": [
    "process_frames(frame_names, video_name, 0, 175, \"mgm_stacked_tcvom\", outdir)"
   ]
  },
  {
   "cell_type": "code",
   "execution_count": 27,
   "metadata": {},
   "outputs": [],
   "source": [
    "process_frames(frame_names, video_name, 0, 175, \"ours_tokens\", outdir)"
   ]
  },
  {
   "cell_type": "code",
   "execution_count": null,
   "metadata": {},
   "outputs": [],
   "source": [
    "for subdir in ['video', 'instmatt', 'sparsemat_hr', 'mgm_single_tcvom', 'mgm_stacked_tcvom', 'ours_tokens']:\n",
    "    input = os.path.join(outdir, video_name, subdir)\n",
    "    !ffmpeg -y -framerate 3 -pattern_type glob -i \"{input}/*.jpg\" -c:v libx264 -vf \"pad=ceil(iw/2)*2:ceil(ih/2)*2\" -pix_fmt yuv420p {input}.mp4"
   ]
  },
  {
   "cell_type": "markdown",
   "metadata": {},
   "source": [
    "# 3_production_id_4122569_2160p"
   ]
  },
  {
   "cell_type": "code",
   "execution_count": 44,
   "metadata": {},
   "outputs": [],
   "source": [
    "# Prepare video with each mask overlayed\n",
    "video_name = \"3_production_id_4122569_2160p\"\n",
    "data_dir = \"/home/chuongh/vm2m/data/vis/real_qual\"\n",
    "outdir = \"/home/chuongh/vm2m/data/vis/website\"\n",
    "\n",
    "frame_names = sorted(os.listdir(os.path.join(data_dir, \"images\", video_name)))\n",
    "\n",
    "colors = [(255, 0, 255), (255, 255, 0), (0, 165, 255), (255, 255, 255)]\n",
    "for frame_name in frame_names:\n",
    "    if int(frame_name.replace(\".jpg\", \"\")) < 0 or int(frame_name.replace(\".jpg\", \"\")) > 120:\n",
    "        continue\n",
    "    frame = cv2.imread(os.path.join(data_dir, \"images\", video_name, frame_name))\n",
    "    # load all masks\n",
    "    mask_names = os.listdir(os.path.join(data_dir, \"masks\", video_name, frame_name.replace(\".jpg\", \"\")))\n",
    "    mask_names = sorted(mask_names)\n",
    "    all_overlays = []\n",
    "    \n",
    "    for i, mask_name in enumerate(mask_names):\n",
    "        mask = cv2.imread(os.path.join(data_dir, \"masks\", video_name, frame_name.replace(\".jpg\", \"\"), mask_name), cv2.IMREAD_GRAYSCALE)\n",
    "        color = colors[i]\n",
    "        color = np.array(color)[None, None]\n",
    "        mask = mask[:, :, None]\n",
    "        mask = (mask > 0) * color\n",
    "        frame[mask > 0] = mask[mask > 0] * 0.7 + frame[mask > 0] * 0.3\n",
    "    #     all_overlays.append(overlay)\n",
    "    # all_overlays = np.concatenate(all_overlays, axis=1)\n",
    "    all_overlays = resize_padding(frame)\n",
    "\n",
    "    out_path = os.path.join(outdir, video_name, \"video\", frame_name)\n",
    "    os.makedirs(os.path.dirname(out_path), exist_ok=True)\n",
    "    cv2.imwrite(out_path, all_overlays)"
   ]
  },
  {
   "cell_type": "code",
   "execution_count": 49,
   "metadata": {},
   "outputs": [],
   "source": [
    "crop_sizes = [[800, 1770], [200, 1080], [800, 1920]]\n",
    "def process_frames_with_crops(frame_names, video_name, lower, upper, subdir, outdir, mask_names, crop_sizes):\n",
    "    for frame_name in frame_names:\n",
    "        if int(frame_name.replace(\".jpg\", \"\")) < lower or int(frame_name.replace(\".jpg\", \"\")) > upper:\n",
    "            continue\n",
    "        frame = cv2.imread(os.path.join(data_dir, \"images\", video_name, frame_name))\n",
    "        frame = frame[:, 590:]\n",
    "        # load all masks\n",
    "        # mask_names = os.listdir(os.path.join(data_dir, subdir, video_name, frame_name.replace(\".jpg\", \"\")))\n",
    "        # mask_names = sorted(mask_names)\n",
    "        all_overlays = []\n",
    "        \n",
    "        for i, mask_name in enumerate(mask_names):\n",
    "            mask = cv2.imread(os.path.join(data_dir, subdir, video_name, frame_name.replace(\".jpg\", \"\"), mask_name), cv2.IMREAD_GRAYSCALE)\n",
    "            mask = mask / 255.0\n",
    "            mask = mask[:, 590:]\n",
    "            postprocess(mask)\n",
    "            mask = mask[:, :, None]\n",
    "            green = np.zeros_like(frame)\n",
    "            green[:, :, 1] = 255\n",
    "            overlay = frame * mask + green * (1.0 - mask)\n",
    "            overlay = resize_padding(overlay)\n",
    "            crop_size = crop_sizes[i]\n",
    "            overlay = overlay[:, crop_size[0]:crop_size[1]]\n",
    "            all_overlays.append(overlay)\n",
    "        all_overlays = np.concatenate(all_overlays, axis=1)\n",
    "        all_overlays = resize_padding(all_overlays)\n",
    "\n",
    "        out_path = os.path.join(outdir, video_name, subdir, frame_name)\n",
    "        os.makedirs(os.path.dirname(out_path), exist_ok=True)\n",
    "        cv2.imwrite(out_path, all_overlays)\n",
    "# InstMatt\n"
   ]
  },
  {
   "cell_type": "code",
   "execution_count": 34,
   "metadata": {},
   "outputs": [],
   "source": [
    "process_frames_with_crops(frame_names, video_name, 0, 120, \"instmatt\", outdir, [\"00.png\", \"01.png\", \"02.png\"], crop_sizes)"
   ]
  },
  {
   "cell_type": "code",
   "execution_count": 35,
   "metadata": {},
   "outputs": [],
   "source": [
    "process_frames_with_crops(frame_names, video_name, 0, 120, \"sparsemat_hr\", outdir, [\"00.png\", \"01.png\", \"02.png\"], crop_sizes)"
   ]
  },
  {
   "cell_type": "code",
   "execution_count": 36,
   "metadata": {},
   "outputs": [],
   "source": [
    "process_frames_with_crops(frame_names, video_name, 0, 120, \"mgm_single_tcvom\", outdir, [\"00.png\", \"01.png\", \"02.png\"], crop_sizes)"
   ]
  },
  {
   "cell_type": "code",
   "execution_count": 37,
   "metadata": {},
   "outputs": [],
   "source": [
    "process_frames_with_crops(frame_names, video_name, 0, 120, \"mgm_stacked_tcvom\", outdir, [\"00.png\", \"01.png\", \"02.png\"], crop_sizes)"
   ]
  },
  {
   "cell_type": "code",
   "execution_count": 41,
   "metadata": {},
   "outputs": [],
   "source": [
    "process_frames_with_crops(frame_names, video_name, 0, 120, \"ours_ss\", outdir, [\"00.png\", \"01.png\", \"02.png\"], crop_sizes)"
   ]
  },
  {
   "cell_type": "code",
   "execution_count": 45,
   "metadata": {},
   "outputs": [
    {
     "name": "stdout",
     "output_type": "stream",
     "text": [
      "ffmpeg version 4.2.2 Copyright (c) 2000-2019 the FFmpeg developers\n",
      "  built with gcc 7.3.0 (crosstool-NG 1.23.0.449-a04d0)\n",
      "  configuration: --prefix=/tmp/build/80754af9/ffmpeg_1587154242452/_h_env_placehold_placehold_placehold_placehold_placehold_placehold_placehold_placehold_placehold_placehold_placehold_placehold_placehold_placehold_placehold_placehold_placehold_placehold_placehold_placehold_placeho --cc=/tmp/build/80754af9/ffmpeg_1587154242452/_build_env/bin/x86_64-conda_cos6-linux-gnu-cc --disable-doc --enable-avresample --enable-gmp --enable-hardcoded-tables --enable-libfreetype --enable-libvpx --enable-pthreads --enable-libopus --enable-postproc --enable-pic --enable-pthreads --enable-shared --enable-static --enable-version3 --enable-zlib --enable-libmp3lame --disable-nonfree --enable-gpl --enable-gnutls --disable-openssl --enable-libopenh264 --enable-libx264\n",
      "  libavutil      56. 31.100 / 56. 31.100\n",
      "  libavcodec     58. 54.100 / 58. 54.100\n",
      "  libavformat    58. 29.100 / 58. 29.100\n",
      "  libavdevice    58.  8.100 / 58.  8.100\n",
      "  libavfilter     7. 57.100 /  7. 57.100\n",
      "  libavresample   4.  0.  0 /  4.  0.  0\n",
      "  libswscale      5.  5.100 /  5.  5.100\n",
      "  libswresample   3.  5.100 /  3.  5.100\n",
      "  libpostproc    55.  5.100 / 55.  5.100\n",
      "Input #0, image2, from '/home/chuongh/vm2m/data/vis/website/3_production_id_4122569_2160p/video/*.jpg':\n",
      "  Duration: 00:00:08.33, start: 0.000000, bitrate: N/A\n",
      "    Stream #0:0: Video: mjpeg (Baseline), yuvj420p(pc, bt470bg/unknown/unknown), 1920x1080 [SAR 1:1 DAR 16:9], 3 fps, 3 tbr, 3 tbn, 3 tbc\n",
      "Stream mapping:\n",
      "  Stream #0:0 -> #0:0 (mjpeg (native) -> h264 (libx264))\n",
      "Press [q] to stop, [?] for help\n",
      "\u001b[1;34m[swscaler @ 0x5642036b8a80] \u001b[0m\u001b[0;33mdeprecated pixel format used, make sure you did set range correctly\n",
      "\u001b[0m\u001b[1;36m[libx264 @ 0x5642034cc900] \u001b[0musing SAR=1/1\n",
      "\u001b[1;36m[libx264 @ 0x5642034cc900] \u001b[0musing cpu capabilities: MMX2 SSE2Fast SSSE3 SSE4.2 AVX FMA3 BMI2 AVX2\n",
      "\u001b[1;36m[libx264 @ 0x5642034cc900] \u001b[0mprofile High, level 4.0, 4:2:0, 8-bit\n",
      "\u001b[1;36m[libx264 @ 0x5642034cc900] \u001b[0m264 - core 157 - H.264/MPEG-4 AVC codec - Copyleft 2003-2018 - http://www.videolan.org/x264.html - options: cabac=1 ref=3 deblock=1:0:0 analyse=0x3:0x113 me=hex subme=7 psy=1 psy_rd=1.00:0.00 mixed_ref=1 me_range=16 chroma_me=1 trellis=1 8x8dct=1 cqm=0 deadzone=21,11 fast_pskip=1 chroma_qp_offset=-2 threads=34 lookahead_threads=5 sliced_threads=0 nr=0 decimate=1 interlaced=0 bluray_compat=0 constrained_intra=0 bframes=3 b_pyramid=2 b_adapt=1 b_bias=0 direct=1 weightb=1 open_gop=0 weightp=2 keyint=250 keyint_min=3 scenecut=40 intra_refresh=0 rc_lookahead=40 rc=crf mbtree=1 crf=23.0 qcomp=0.60 qpmin=0 qpmax=69 qpstep=4 ip_ratio=1.40 aq=1:1.00\n",
      "Output #0, mp4, to '/home/chuongh/vm2m/data/vis/website/3_production_id_4122569_2160p/video.mp4':\n",
      "  Metadata:\n",
      "    encoder         : Lavf58.29.100\n",
      "    Stream #0:0: Video: h264 (libx264) (avc1 / 0x31637661), yuv420p, 1920x1080 [SAR 1:1 DAR 16:9], q=-1--1, 3 fps, 12288 tbn, 3 tbc\n",
      "    Metadata:\n",
      "      encoder         : Lavc58.54.100 libx264\n",
      "    Side data:\n",
      "      cpb: bitrate max/min/avg: 0/0/0 buffer size: 0 vbv_delay: -1\n"
     ]
    },
    {
     "name": "stdout",
     "output_type": "stream",
     "text": [
      "frame=   25 fps=0.0 q=-1.0 Lsize=    3038kB time=00:00:07.33 bitrate=3393.4kbits/s speed=7.57x    \n",
      "video:3037kB audio:0kB subtitle:0kB other streams:0kB global headers:0kB muxing overhead: 0.038399%\n",
      "\u001b[1;36m[libx264 @ 0x5642034cc900] \u001b[0mframe I:1     Avg QP:16.97  size:309926\n",
      "\u001b[1;36m[libx264 @ 0x5642034cc900] \u001b[0mframe P:7     Avg QP:17.36  size:180669\n",
      "\u001b[1;36m[libx264 @ 0x5642034cc900] \u001b[0mframe B:17    Avg QP:18.98  size: 90246\n",
      "\u001b[1;36m[libx264 @ 0x5642034cc900] \u001b[0mconsecutive B-frames:  8.0%  0.0% 12.0% 80.0%\n",
      "\u001b[1;36m[libx264 @ 0x5642034cc900] \u001b[0mmb I  I16..4:  1.5% 86.4% 12.1%\n",
      "\u001b[1;36m[libx264 @ 0x5642034cc900] \u001b[0mmb P  I16..4:  1.0% 31.0%  4.8%  P16..4: 25.3% 24.5% 12.6%  0.0%  0.0%    skip: 0.8%\n",
      "\u001b[1;36m[libx264 @ 0x5642034cc900] \u001b[0mmb B  I16..4:  0.1%  3.1%  1.1%  B16..8: 38.4% 20.7%  7.2%  direct:12.9%  skip:16.3%  L0:43.3% L1:38.3% BI:18.4%\n",
      "\u001b[1;36m[libx264 @ 0x5642034cc900] \u001b[0m8x8 transform intra:82.6% inter:64.4%\n",
      "\u001b[1;36m[libx264 @ 0x5642034cc900] \u001b[0mcoded y,uvDC,uvAC intra: 92.5% 99.2% 93.4% inter: 48.5% 66.6% 28.2%\n",
      "\u001b[1;36m[libx264 @ 0x5642034cc900] \u001b[0mi16 v,h,dc,p:  6%  9%  6% 79%\n",
      "\u001b[1;36m[libx264 @ 0x5642034cc900] \u001b[0mi8 v,h,dc,ddl,ddr,vr,hd,vl,hu: 17% 15% 16%  6%  9%  9%  9%  9%  9%\n",
      "\u001b[1;36m[libx264 @ 0x5642034cc900] \u001b[0mi4 v,h,dc,ddl,ddr,vr,hd,vl,hu: 22% 15% 12%  7% 11% 10% 10%  7%  6%\n",
      "\u001b[1;36m[libx264 @ 0x5642034cc900] \u001b[0mi8c dc,h,v,p: 49% 19% 19% 13%\n",
      "\u001b[1;36m[libx264 @ 0x5642034cc900] \u001b[0mWeighted P-Frames: Y:0.0% UV:0.0%\n",
      "\u001b[1;36m[libx264 @ 0x5642034cc900] \u001b[0mref P L0: 56.0% 14.7% 19.4%  9.9%\n",
      "\u001b[1;36m[libx264 @ 0x5642034cc900] \u001b[0mref B L0: 88.1%  9.1%  2.8%\n",
      "\u001b[1;36m[libx264 @ 0x5642034cc900] \u001b[0mref B L1: 97.2%  2.8%\n",
      "\u001b[1;36m[libx264 @ 0x5642034cc900] \u001b[0mkb/s:2984.45\n",
      "ffmpeg version 4.2.2 Copyright (c) 2000-2019 the FFmpeg developers\n",
      "  built with gcc 7.3.0 (crosstool-NG 1.23.0.449-a04d0)\n",
      "  configuration: --prefix=/tmp/build/80754af9/ffmpeg_1587154242452/_h_env_placehold_placehold_placehold_placehold_placehold_placehold_placehold_placehold_placehold_placehold_placehold_placehold_placehold_placehold_placehold_placehold_placehold_placehold_placehold_placehold_placeho --cc=/tmp/build/80754af9/ffmpeg_1587154242452/_build_env/bin/x86_64-conda_cos6-linux-gnu-cc --disable-doc --enable-avresample --enable-gmp --enable-hardcoded-tables --enable-libfreetype --enable-libvpx --enable-pthreads --enable-libopus --enable-postproc --enable-pic --enable-pthreads --enable-shared --enable-static --enable-version3 --enable-zlib --enable-libmp3lame --disable-nonfree --enable-gpl --enable-gnutls --disable-openssl --enable-libopenh264 --enable-libx264\n",
      "  libavutil      56. 31.100 / 56. 31.100\n",
      "  libavcodec     58. 54.100 / 58. 54.100\n",
      "  libavformat    58. 29.100 / 58. 29.100\n",
      "  libavdevice    58.  8.100 / 58.  8.100\n",
      "  libavfilter     7. 57.100 /  7. 57.100\n",
      "  libavresample   4.  0.  0 /  4.  0.  0\n",
      "  libswscale      5.  5.100 /  5.  5.100\n",
      "  libswresample   3.  5.100 /  3.  5.100\n",
      "  libpostproc    55.  5.100 / 55.  5.100\n",
      "Input #0, image2, from '/home/chuongh/vm2m/data/vis/website/3_production_id_4122569_2160p/instmatt/*.jpg':\n",
      "  Duration: 00:00:08.33, start: 0.000000, bitrate: N/A\n",
      "    Stream #0:0: Video: mjpeg (Baseline), yuvj420p(pc, bt470bg/unknown/unknown), 1920x1080 [SAR 1:1 DAR 16:9], 3 fps, 3 tbr, 3 tbn, 3 tbc\n",
      "Stream mapping:\n",
      "  Stream #0:0 -> #0:0 (mjpeg (native) -> h264 (libx264))\n",
      "Press [q] to stop, [?] for help\n",
      "\u001b[1;34m[swscaler @ 0x55af8b6cd5c0] \u001b[0m\u001b[0;33mdeprecated pixel format used, make sure you did set range correctly\n",
      "\u001b[0m\u001b[1;36m[libx264 @ 0x55af8b62eb40] \u001b[0musing SAR=1/1\n",
      "\u001b[1;36m[libx264 @ 0x55af8b62eb40] \u001b[0musing cpu capabilities: MMX2 SSE2Fast SSSE3 SSE4.2 AVX FMA3 BMI2 AVX2\n",
      "\u001b[1;36m[libx264 @ 0x55af8b62eb40] \u001b[0mprofile High, level 4.0, 4:2:0, 8-bit\n",
      "\u001b[1;36m[libx264 @ 0x55af8b62eb40] \u001b[0m264 - core 157 - H.264/MPEG-4 AVC codec - Copyleft 2003-2018 - http://www.videolan.org/x264.html - options: cabac=1 ref=3 deblock=1:0:0 analyse=0x3:0x113 me=hex subme=7 psy=1 psy_rd=1.00:0.00 mixed_ref=1 me_range=16 chroma_me=1 trellis=1 8x8dct=1 cqm=0 deadzone=21,11 fast_pskip=1 chroma_qp_offset=-2 threads=34 lookahead_threads=5 sliced_threads=0 nr=0 decimate=1 interlaced=0 bluray_compat=0 constrained_intra=0 bframes=3 b_pyramid=2 b_adapt=1 b_bias=0 direct=1 weightb=1 open_gop=0 weightp=2 keyint=250 keyint_min=3 scenecut=40 intra_refresh=0 rc_lookahead=40 rc=crf mbtree=1 crf=23.0 qcomp=0.60 qpmin=0 qpmax=69 qpstep=4 ip_ratio=1.40 aq=1:1.00\n",
      "Output #0, mp4, to '/home/chuongh/vm2m/data/vis/website/3_production_id_4122569_2160p/instmatt.mp4':\n",
      "  Metadata:\n",
      "    encoder         : Lavf58.29.100\n",
      "    Stream #0:0: Video: h264 (libx264) (avc1 / 0x31637661), yuv420p, 1920x1080 [SAR 1:1 DAR 16:9], q=-1--1, 3 fps, 12288 tbn, 3 tbc\n",
      "    Metadata:\n",
      "      encoder         : Lavc58.54.100 libx264\n",
      "    Side data:\n",
      "      cpb: bitrate max/min/avg: 0/0/0 buffer size: 0 vbv_delay: -1\n",
      "frame=   25 fps=0.0 q=-1.0 Lsize=    1204kB time=00:00:07.33 bitrate=1344.4kbits/s speed=12.3x    \n",
      "video:1202kB audio:0kB subtitle:0kB other streams:0kB global headers:0kB muxing overhead: 0.095026%\n",
      "\u001b[1;36m[libx264 @ 0x55af8b62eb40] \u001b[0mframe I:1     Avg QP: 9.67  size:135533\n",
      "\u001b[1;36m[libx264 @ 0x55af8b62eb40] \u001b[0mframe P:6     Avg QP:14.34  size: 81168\n",
      "\u001b[1;36m[libx264 @ 0x55af8b62eb40] \u001b[0mframe B:18    Avg QP:15.90  size: 33779\n",
      "\u001b[1;36m[libx264 @ 0x55af8b62eb40] \u001b[0mconsecutive B-frames:  4.0%  0.0%  0.0% 96.0%\n",
      "\u001b[1;36m[libx264 @ 0x55af8b62eb40] \u001b[0mmb I  I16..4: 55.4% 38.5%  6.1%\n",
      "\u001b[1;36m[libx264 @ 0x55af8b62eb40] \u001b[0mmb P  I16..4:  1.2%  9.9%  1.4%  P16..4:  7.9%  7.9%  5.1%  0.0%  0.0%    skip:66.5%\n",
      "\u001b[1;36m[libx264 @ 0x55af8b62eb40] \u001b[0mmb B  I16..4:  0.2%  0.9%  0.3%  B16..8: 14.1%  6.6%  2.2%  direct: 3.8%  skip:71.8%  L0:35.6% L1:34.5% BI:29.9%\n",
      "\u001b[1;36m[libx264 @ 0x55af8b62eb40] \u001b[0m8x8 transform intra:56.9% inter:55.6%\n",
      "\u001b[1;36m[libx264 @ 0x55af8b62eb40] \u001b[0mcoded y,uvDC,uvAC intra: 50.5% 54.8% 45.3% inter: 12.9% 16.0% 9.5%\n",
      "\u001b[1;36m[libx264 @ 0x55af8b62eb40] \u001b[0mi16 v,h,dc,p: 88%  9%  3%  0%\n",
      "\u001b[1;36m[libx264 @ 0x55af8b62eb40] \u001b[0mi8 v,h,dc,ddl,ddr,vr,hd,vl,hu: 20% 10% 23%  5%  9%  9%  8%  7%  8%\n",
      "\u001b[1;36m[libx264 @ 0x55af8b62eb40] \u001b[0mi4 v,h,dc,ddl,ddr,vr,hd,vl,hu: 16% 15% 13%  8% 12% 11%  9%  8%  7%\n",
      "\u001b[1;36m[libx264 @ 0x55af8b62eb40] \u001b[0mi8c dc,h,v,p: 63% 15% 16%  6%\n",
      "\u001b[1;36m[libx264 @ 0x55af8b62eb40] \u001b[0mWeighted P-Frames: Y:0.0% UV:0.0%\n",
      "\u001b[1;36m[libx264 @ 0x55af8b62eb40] \u001b[0mref P L0: 49.3% 18.2% 22.2% 10.3%\n",
      "\u001b[1;36m[libx264 @ 0x55af8b62eb40] \u001b[0mref B L0: 88.6%  8.9%  2.5%\n",
      "\u001b[1;36m[libx264 @ 0x55af8b62eb40] \u001b[0mref B L1: 94.9%  5.1%\n",
      "\u001b[1;36m[libx264 @ 0x55af8b62eb40] \u001b[0mkb/s:1181.34\n",
      "ffmpeg version 4.2.2 Copyright (c) 2000-2019 the FFmpeg developers\n",
      "  built with gcc 7.3.0 (crosstool-NG 1.23.0.449-a04d0)\n",
      "  configuration: --prefix=/tmp/build/80754af9/ffmpeg_1587154242452/_h_env_placehold_placehold_placehold_placehold_placehold_placehold_placehold_placehold_placehold_placehold_placehold_placehold_placehold_placehold_placehold_placehold_placehold_placehold_placehold_placehold_placeho --cc=/tmp/build/80754af9/ffmpeg_1587154242452/_build_env/bin/x86_64-conda_cos6-linux-gnu-cc --disable-doc --enable-avresample --enable-gmp --enable-hardcoded-tables --enable-libfreetype --enable-libvpx --enable-pthreads --enable-libopus --enable-postproc --enable-pic --enable-pthreads --enable-shared --enable-static --enable-version3 --enable-zlib --enable-libmp3lame --disable-nonfree --enable-gpl --enable-gnutls --disable-openssl --enable-libopenh264 --enable-libx264\n",
      "  libavutil      56. 31.100 / 56. 31.100\n",
      "  libavcodec     58. 54.100 / 58. 54.100\n",
      "  libavformat    58. 29.100 / 58. 29.100\n",
      "  libavdevice    58.  8.100 / 58.  8.100\n",
      "  libavfilter     7. 57.100 /  7. 57.100\n",
      "  libavresample   4.  0.  0 /  4.  0.  0\n",
      "  libswscale      5.  5.100 /  5.  5.100\n",
      "  libswresample   3.  5.100 /  3.  5.100\n",
      "  libpostproc    55.  5.100 / 55.  5.100\n",
      "Input #0, image2, from '/home/chuongh/vm2m/data/vis/website/3_production_id_4122569_2160p/sparsemat_hr/*.jpg':\n",
      "  Duration: 00:00:08.33, start: 0.000000, bitrate: N/A\n",
      "    Stream #0:0: Video: mjpeg (Baseline), yuvj420p(pc, bt470bg/unknown/unknown), 1920x1080 [SAR 1:1 DAR 16:9], 3 fps, 3 tbr, 3 tbn, 3 tbc\n",
      "Stream mapping:\n",
      "  Stream #0:0 -> #0:0 (mjpeg (native) -> h264 (libx264))\n",
      "Press [q] to stop, [?] for help\n",
      "\u001b[1;34m[swscaler @ 0x561168803d40] \u001b[0m\u001b[0;33mdeprecated pixel format used, make sure you did set range correctly\n",
      "\u001b[0m\u001b[1;36m[libx264 @ 0x5611687620c0] \u001b[0musing SAR=1/1\n",
      "\u001b[1;36m[libx264 @ 0x5611687620c0] \u001b[0musing cpu capabilities: MMX2 SSE2Fast SSSE3 SSE4.2 AVX FMA3 BMI2 AVX2\n",
      "\u001b[1;36m[libx264 @ 0x5611687620c0] \u001b[0mprofile High, level 4.0, 4:2:0, 8-bit\n",
      "\u001b[1;36m[libx264 @ 0x5611687620c0] \u001b[0m264 - core 157 - H.264/MPEG-4 AVC codec - Copyleft 2003-2018 - http://www.videolan.org/x264.html - options: cabac=1 ref=3 deblock=1:0:0 analyse=0x3:0x113 me=hex subme=7 psy=1 psy_rd=1.00:0.00 mixed_ref=1 me_range=16 chroma_me=1 trellis=1 8x8dct=1 cqm=0 deadzone=21,11 fast_pskip=1 chroma_qp_offset=-2 threads=34 lookahead_threads=5 sliced_threads=0 nr=0 decimate=1 interlaced=0 bluray_compat=0 constrained_intra=0 bframes=3 b_pyramid=2 b_adapt=1 b_bias=0 direct=1 weightb=1 open_gop=0 weightp=2 keyint=250 keyint_min=3 scenecut=40 intra_refresh=0 rc_lookahead=40 rc=crf mbtree=1 crf=23.0 qcomp=0.60 qpmin=0 qpmax=69 qpstep=4 ip_ratio=1.40 aq=1:1.00\n",
      "Output #0, mp4, to '/home/chuongh/vm2m/data/vis/website/3_production_id_4122569_2160p/sparsemat_hr.mp4':\n",
      "  Metadata:\n",
      "    encoder         : Lavf58.29.100\n",
      "    Stream #0:0: Video: h264 (libx264) (avc1 / 0x31637661), yuv420p, 1920x1080 [SAR 1:1 DAR 16:9], q=-1--1, 3 fps, 12288 tbn, 3 tbc\n",
      "    Metadata:\n",
      "      encoder         : Lavc58.54.100 libx264\n",
      "    Side data:\n",
      "      cpb: bitrate max/min/avg: 0/0/0 buffer size: 0 vbv_delay: -1\n",
      "frame=   25 fps=0.0 q=-1.0 Lsize=    1259kB time=00:00:07.33 bitrate=1406.6kbits/s speed=12.2x    \n",
      "video:1258kB audio:0kB subtitle:0kB other streams:0kB global headers:0kB muxing overhead: 0.090823%\n",
      "\u001b[1;36m[libx264 @ 0x5611687620c0] \u001b[0mframe I:1     Avg QP:10.41  size:134445\n",
      "\u001b[1;36m[libx264 @ 0x5611687620c0] \u001b[0mframe P:6     Avg QP:16.10  size: 83035\n",
      "\u001b[1;36m[libx264 @ 0x5611687620c0] \u001b[0mframe B:18    Avg QP:15.34  size: 36383\n",
      "\u001b[1;36m[libx264 @ 0x5611687620c0] \u001b[0mconsecutive B-frames:  4.0%  0.0%  0.0% 96.0%\n",
      "\u001b[1;36m[libx264 @ 0x5611687620c0] \u001b[0mmb I  I16..4: 51.3% 42.9%  5.8%\n",
      "\u001b[1;36m[libx264 @ 0x5611687620c0] \u001b[0mmb P  I16..4:  1.0% 10.2%  1.5%  P16..4:  7.9%  7.7%  5.0%  0.0%  0.0%    skip:66.7%\n",
      "\u001b[1;36m[libx264 @ 0x5611687620c0] \u001b[0mmb B  I16..4:  0.2%  1.1%  0.4%  B16..8: 13.9%  6.6%  2.4%  direct: 3.7%  skip:71.8%  L0:36.1% L1:34.9% BI:29.0%\n",
      "\u001b[1;36m[libx264 @ 0x5611687620c0] \u001b[0m8x8 transform intra:59.7% inter:54.2%\n",
      "\u001b[1;36m[libx264 @ 0x5611687620c0] \u001b[0mcoded y,uvDC,uvAC intra: 51.0% 55.7% 45.7% inter: 12.7% 15.2% 9.5%\n",
      "\u001b[1;36m[libx264 @ 0x5611687620c0] \u001b[0mi16 v,h,dc,p: 87%  9%  3%  1%\n",
      "\u001b[1;36m[libx264 @ 0x5611687620c0] \u001b[0mi8 v,h,dc,ddl,ddr,vr,hd,vl,hu: 21%  9% 25%  5%  9%  9%  8%  6%  7%\n",
      "\u001b[1;36m[libx264 @ 0x5611687620c0] \u001b[0mi4 v,h,dc,ddl,ddr,vr,hd,vl,hu: 18% 15% 15%  7% 11% 11%  9%  8%  7%\n",
      "\u001b[1;36m[libx264 @ 0x5611687620c0] \u001b[0mi8c dc,h,v,p: 61% 16% 17%  6%\n",
      "\u001b[1;36m[libx264 @ 0x5611687620c0] \u001b[0mWeighted P-Frames: Y:0.0% UV:0.0%\n",
      "\u001b[1;36m[libx264 @ 0x5611687620c0] \u001b[0mref P L0: 48.8% 19.0% 21.4% 10.7%\n",
      "\u001b[1;36m[libx264 @ 0x5611687620c0] \u001b[0mref B L0: 88.1%  9.2%  2.6%\n",
      "\u001b[1;36m[libx264 @ 0x5611687620c0] \u001b[0mref B L1: 94.5%  5.5%\n",
      "\u001b[1;36m[libx264 @ 0x5611687620c0] \u001b[0mkb/s:1236.05\n",
      "ffmpeg version 4.2.2 Copyright (c) 2000-2019 the FFmpeg developers\n",
      "  built with gcc 7.3.0 (crosstool-NG 1.23.0.449-a04d0)\n",
      "  configuration: --prefix=/tmp/build/80754af9/ffmpeg_1587154242452/_h_env_placehold_placehold_placehold_placehold_placehold_placehold_placehold_placehold_placehold_placehold_placehold_placehold_placehold_placehold_placehold_placehold_placehold_placehold_placehold_placehold_placeho --cc=/tmp/build/80754af9/ffmpeg_1587154242452/_build_env/bin/x86_64-conda_cos6-linux-gnu-cc --disable-doc --enable-avresample --enable-gmp --enable-hardcoded-tables --enable-libfreetype --enable-libvpx --enable-pthreads --enable-libopus --enable-postproc --enable-pic --enable-pthreads --enable-shared --enable-static --enable-version3 --enable-zlib --enable-libmp3lame --disable-nonfree --enable-gpl --enable-gnutls --disable-openssl --enable-libopenh264 --enable-libx264\n",
      "  libavutil      56. 31.100 / 56. 31.100\n",
      "  libavcodec     58. 54.100 / 58. 54.100\n",
      "  libavformat    58. 29.100 / 58. 29.100\n",
      "  libavdevice    58.  8.100 / 58.  8.100\n",
      "  libavfilter     7. 57.100 /  7. 57.100\n",
      "  libavresample   4.  0.  0 /  4.  0.  0\n",
      "  libswscale      5.  5.100 /  5.  5.100\n",
      "  libswresample   3.  5.100 /  3.  5.100\n",
      "  libpostproc    55.  5.100 / 55.  5.100\n",
      "Input #0, image2, from '/home/chuongh/vm2m/data/vis/website/3_production_id_4122569_2160p/mgm_single_tcvom/*.jpg':\n",
      "  Duration: 00:00:08.33, start: 0.000000, bitrate: N/A\n",
      "    Stream #0:0: Video: mjpeg (Baseline), yuvj420p(pc, bt470bg/unknown/unknown), 1920x1080 [SAR 1:1 DAR 16:9], 3 fps, 3 tbr, 3 tbn, 3 tbc\n",
      "Stream mapping:\n",
      "  Stream #0:0 -> #0:0 (mjpeg (native) -> h264 (libx264))\n",
      "Press [q] to stop, [?] for help\n",
      "\u001b[1;34m[swscaler @ 0x55d204dd8440] \u001b[0m\u001b[0;33mdeprecated pixel format used, make sure you did set range correctly\n",
      "\u001b[0m\u001b[1;36m[libx264 @ 0x55d204d37040] \u001b[0musing SAR=1/1\n",
      "\u001b[1;36m[libx264 @ 0x55d204d37040] \u001b[0musing cpu capabilities: MMX2 SSE2Fast SSSE3 SSE4.2 AVX FMA3 BMI2 AVX2\n",
      "\u001b[1;36m[libx264 @ 0x55d204d37040] \u001b[0mprofile High, level 4.0, 4:2:0, 8-bit\n",
      "\u001b[1;36m[libx264 @ 0x55d204d37040] \u001b[0m264 - core 157 - H.264/MPEG-4 AVC codec - Copyleft 2003-2018 - http://www.videolan.org/x264.html - options: cabac=1 ref=3 deblock=1:0:0 analyse=0x3:0x113 me=hex subme=7 psy=1 psy_rd=1.00:0.00 mixed_ref=1 me_range=16 chroma_me=1 trellis=1 8x8dct=1 cqm=0 deadzone=21,11 fast_pskip=1 chroma_qp_offset=-2 threads=34 lookahead_threads=5 sliced_threads=0 nr=0 decimate=1 interlaced=0 bluray_compat=0 constrained_intra=0 bframes=3 b_pyramid=2 b_adapt=1 b_bias=0 direct=1 weightb=1 open_gop=0 weightp=2 keyint=250 keyint_min=3 scenecut=40 intra_refresh=0 rc_lookahead=40 rc=crf mbtree=1 crf=23.0 qcomp=0.60 qpmin=0 qpmax=69 qpstep=4 ip_ratio=1.40 aq=1:1.00\n",
      "Output #0, mp4, to '/home/chuongh/vm2m/data/vis/website/3_production_id_4122569_2160p/mgm_single_tcvom.mp4':\n",
      "  Metadata:\n",
      "    encoder         : Lavf58.29.100\n",
      "    Stream #0:0: Video: h264 (libx264) (avc1 / 0x31637661), yuv420p, 1920x1080 [SAR 1:1 DAR 16:9], q=-1--1, 3 fps, 12288 tbn, 3 tbc\n",
      "    Metadata:\n",
      "      encoder         : Lavc58.54.100 libx264\n",
      "    Side data:\n",
      "      cpb: bitrate max/min/avg: 0/0/0 buffer size: 0 vbv_delay: -1\n",
      "frame=   25 fps=0.0 q=-1.0 Lsize=    1214kB time=00:00:07.33 bitrate=1355.9kbits/s speed=12.4x    \n",
      "video:1213kB audio:0kB subtitle:0kB other streams:0kB global headers:0kB muxing overhead: 0.094220%\n",
      "\u001b[1;36m[libx264 @ 0x55d204d37040] \u001b[0mframe I:1     Avg QP:10.12  size:134635\n",
      "\u001b[1;36m[libx264 @ 0x55d204d37040] \u001b[0mframe P:6     Avg QP:15.00  size: 81140\n",
      "\u001b[1;36m[libx264 @ 0x55d204d37040] \u001b[0mframe B:18    Avg QP:15.49  size: 34424\n",
      "\u001b[1;36m[libx264 @ 0x55d204d37040] \u001b[0mconsecutive B-frames:  4.0%  0.0%  0.0% 96.0%\n",
      "\u001b[1;36m[libx264 @ 0x55d204d37040] \u001b[0mmb I  I16..4: 53.0% 41.1%  5.9%\n",
      "\u001b[1;36m[libx264 @ 0x55d204d37040] \u001b[0mmb P  I16..4:  1.3% 10.0%  1.5%  P16..4:  7.9%  7.8%  5.2%  0.0%  0.0%    skip:66.3%\n",
      "\u001b[1;36m[libx264 @ 0x55d204d37040] \u001b[0mmb B  I16..4:  0.2%  1.0%  0.3%  B16..8: 14.0%  6.7%  2.2%  direct: 3.7%  skip:71.8%  L0:35.8% L1:34.5% BI:29.7%\n",
      "\u001b[1;36m[libx264 @ 0x55d204d37040] \u001b[0m8x8 transform intra:58.3% inter:54.9%\n",
      "\u001b[1;36m[libx264 @ 0x55d204d37040] \u001b[0mcoded y,uvDC,uvAC intra: 50.8% 55.7% 45.7% inter: 12.6% 15.7% 9.6%\n",
      "\u001b[1;36m[libx264 @ 0x55d204d37040] \u001b[0mi16 v,h,dc,p: 87%  9%  3%  1%\n",
      "\u001b[1;36m[libx264 @ 0x55d204d37040] \u001b[0mi8 v,h,dc,ddl,ddr,vr,hd,vl,hu: 19%  9% 26%  6%  9%  9%  8%  7%  8%\n",
      "\u001b[1;36m[libx264 @ 0x55d204d37040] \u001b[0mi4 v,h,dc,ddl,ddr,vr,hd,vl,hu: 17% 15% 13%  8% 12% 11%  9%  8%  7%\n",
      "\u001b[1;36m[libx264 @ 0x55d204d37040] \u001b[0mi8c dc,h,v,p: 62% 15% 16%  6%\n",
      "\u001b[1;36m[libx264 @ 0x55d204d37040] \u001b[0mWeighted P-Frames: Y:0.0% UV:0.0%\n",
      "\u001b[1;36m[libx264 @ 0x55d204d37040] \u001b[0mref P L0: 50.1% 18.5% 20.7% 10.6%\n",
      "\u001b[1;36m[libx264 @ 0x55d204d37040] \u001b[0mref B L0: 88.7%  8.6%  2.7%\n",
      "\u001b[1;36m[libx264 @ 0x55d204d37040] \u001b[0mref B L1: 94.7%  5.3%\n",
      "\u001b[1;36m[libx264 @ 0x55d204d37040] \u001b[0mkb/s:1191.46\n",
      "ffmpeg version 4.2.2 Copyright (c) 2000-2019 the FFmpeg developers\n",
      "  built with gcc 7.3.0 (crosstool-NG 1.23.0.449-a04d0)\n",
      "  configuration: --prefix=/tmp/build/80754af9/ffmpeg_1587154242452/_h_env_placehold_placehold_placehold_placehold_placehold_placehold_placehold_placehold_placehold_placehold_placehold_placehold_placehold_placehold_placehold_placehold_placehold_placehold_placehold_placehold_placeho --cc=/tmp/build/80754af9/ffmpeg_1587154242452/_build_env/bin/x86_64-conda_cos6-linux-gnu-cc --disable-doc --enable-avresample --enable-gmp --enable-hardcoded-tables --enable-libfreetype --enable-libvpx --enable-pthreads --enable-libopus --enable-postproc --enable-pic --enable-pthreads --enable-shared --enable-static --enable-version3 --enable-zlib --enable-libmp3lame --disable-nonfree --enable-gpl --enable-gnutls --disable-openssl --enable-libopenh264 --enable-libx264\n",
      "  libavutil      56. 31.100 / 56. 31.100\n",
      "  libavcodec     58. 54.100 / 58. 54.100\n",
      "  libavformat    58. 29.100 / 58. 29.100\n",
      "  libavdevice    58.  8.100 / 58.  8.100\n",
      "  libavfilter     7. 57.100 /  7. 57.100\n",
      "  libavresample   4.  0.  0 /  4.  0.  0\n",
      "  libswscale      5.  5.100 /  5.  5.100\n",
      "  libswresample   3.  5.100 /  3.  5.100\n",
      "  libpostproc    55.  5.100 / 55.  5.100\n",
      "Input #0, image2, from '/home/chuongh/vm2m/data/vis/website/3_production_id_4122569_2160p/mgm_stacked_tcvom/*.jpg':\n",
      "  Duration: 00:00:08.33, start: 0.000000, bitrate: N/A\n",
      "    Stream #0:0: Video: mjpeg (Baseline), yuvj420p(pc, bt470bg/unknown/unknown), 1920x1080 [SAR 1:1 DAR 16:9], 3 fps, 3 tbr, 3 tbn, 3 tbc\n",
      "Stream mapping:\n",
      "  Stream #0:0 -> #0:0 (mjpeg (native) -> h264 (libx264))\n",
      "Press [q] to stop, [?] for help\n",
      "\u001b[1;34m[swscaler @ 0x55ca24d68540] \u001b[0m\u001b[0;33mdeprecated pixel format used, make sure you did set range correctly\n",
      "\u001b[0m\u001b[1;36m[libx264 @ 0x55ca24cc7040] \u001b[0musing SAR=1/1\n",
      "\u001b[1;36m[libx264 @ 0x55ca24cc7040] \u001b[0musing cpu capabilities: MMX2 SSE2Fast SSSE3 SSE4.2 AVX FMA3 BMI2 AVX2\n",
      "\u001b[1;36m[libx264 @ 0x55ca24cc7040] \u001b[0mprofile High, level 4.0, 4:2:0, 8-bit\n",
      "\u001b[1;36m[libx264 @ 0x55ca24cc7040] \u001b[0m264 - core 157 - H.264/MPEG-4 AVC codec - Copyleft 2003-2018 - http://www.videolan.org/x264.html - options: cabac=1 ref=3 deblock=1:0:0 analyse=0x3:0x113 me=hex subme=7 psy=1 psy_rd=1.00:0.00 mixed_ref=1 me_range=16 chroma_me=1 trellis=1 8x8dct=1 cqm=0 deadzone=21,11 fast_pskip=1 chroma_qp_offset=-2 threads=34 lookahead_threads=5 sliced_threads=0 nr=0 decimate=1 interlaced=0 bluray_compat=0 constrained_intra=0 bframes=3 b_pyramid=2 b_adapt=1 b_bias=0 direct=1 weightb=1 open_gop=0 weightp=2 keyint=250 keyint_min=3 scenecut=40 intra_refresh=0 rc_lookahead=40 rc=crf mbtree=1 crf=23.0 qcomp=0.60 qpmin=0 qpmax=69 qpstep=4 ip_ratio=1.40 aq=1:1.00\n",
      "Output #0, mp4, to '/home/chuongh/vm2m/data/vis/website/3_production_id_4122569_2160p/mgm_stacked_tcvom.mp4':\n",
      "  Metadata:\n",
      "    encoder         : Lavf58.29.100\n",
      "    Stream #0:0: Video: h264 (libx264) (avc1 / 0x31637661), yuv420p, 1920x1080 [SAR 1:1 DAR 16:9], q=-1--1, 3 fps, 12288 tbn, 3 tbc\n",
      "    Metadata:\n",
      "      encoder         : Lavc58.54.100 libx264\n",
      "    Side data:\n",
      "      cpb: bitrate max/min/avg: 0/0/0 buffer size: 0 vbv_delay: -1\n",
      "frame=   25 fps=0.0 q=-1.0 Lsize=    1221kB time=00:00:07.33 bitrate=1363.7kbits/s speed=  12x    \n",
      "video:1220kB audio:0kB subtitle:0kB other streams:0kB global headers:0kB muxing overhead: 0.093680%\n",
      "\u001b[1;36m[libx264 @ 0x55ca24cc7040] \u001b[0mframe I:1     Avg QP:10.55  size:134823\n",
      "\u001b[1;36m[libx264 @ 0x55ca24cc7040] \u001b[0mframe P:6     Avg QP:15.88  size: 81416\n",
      "\u001b[1;36m[libx264 @ 0x55ca24cc7040] \u001b[0mframe B:18    Avg QP:15.83  size: 34719\n",
      "\u001b[1;36m[libx264 @ 0x55ca24cc7040] \u001b[0mconsecutive B-frames:  4.0%  0.0%  0.0% 96.0%\n",
      "\u001b[1;36m[libx264 @ 0x55ca24cc7040] \u001b[0mmb I  I16..4: 49.7% 44.4%  5.9%\n",
      "\u001b[1;36m[libx264 @ 0x55ca24cc7040] \u001b[0mmb P  I16..4:  1.1% 10.0%  1.5%  P16..4:  7.6%  7.7%  5.3%  0.0%  0.0%    skip:66.7%\n",
      "\u001b[1;36m[libx264 @ 0x55ca24cc7040] \u001b[0mmb B  I16..4:  0.2%  1.0%  0.3%  B16..8: 14.0%  6.6%  2.3%  direct: 3.7%  skip:71.8%  L0:36.3% L1:34.4% BI:29.3%\n",
      "\u001b[1;36m[libx264 @ 0x55ca24cc7040] \u001b[0m8x8 transform intra:60.0% inter:54.4%\n",
      "\u001b[1;36m[libx264 @ 0x55ca24cc7040] \u001b[0mcoded y,uvDC,uvAC intra: 50.3% 54.8% 44.8% inter: 12.7% 15.7% 9.6%\n",
      "\u001b[1;36m[libx264 @ 0x55ca24cc7040] \u001b[0mi16 v,h,dc,p: 86% 10%  3%  1%\n",
      "\u001b[1;36m[libx264 @ 0x55ca24cc7040] \u001b[0mi8 v,h,dc,ddl,ddr,vr,hd,vl,hu: 22%  9% 25%  5%  9%  8%  8%  6%  7%\n",
      "\u001b[1;36m[libx264 @ 0x55ca24cc7040] \u001b[0mi4 v,h,dc,ddl,ddr,vr,hd,vl,hu: 17% 16% 14%  8% 11% 10%  9%  8%  7%\n",
      "\u001b[1;36m[libx264 @ 0x55ca24cc7040] \u001b[0mi8c dc,h,v,p: 62% 15% 17%  6%\n",
      "\u001b[1;36m[libx264 @ 0x55ca24cc7040] \u001b[0mWeighted P-Frames: Y:0.0% UV:0.0%\n",
      "\u001b[1;36m[libx264 @ 0x55ca24cc7040] \u001b[0mref P L0: 49.3% 18.5% 22.0% 10.3%\n",
      "\u001b[1;36m[libx264 @ 0x55ca24cc7040] \u001b[0mref B L0: 88.3%  8.8%  2.9%\n",
      "\u001b[1;36m[libx264 @ 0x55ca24cc7040] \u001b[0mref B L1: 95.0%  5.0%\n",
      "\u001b[1;36m[libx264 @ 0x55ca24cc7040] \u001b[0mkb/s:1198.33\n",
      "ffmpeg version 4.2.2 Copyright (c) 2000-2019 the FFmpeg developers\n",
      "  built with gcc 7.3.0 (crosstool-NG 1.23.0.449-a04d0)\n",
      "  configuration: --prefix=/tmp/build/80754af9/ffmpeg_1587154242452/_h_env_placehold_placehold_placehold_placehold_placehold_placehold_placehold_placehold_placehold_placehold_placehold_placehold_placehold_placehold_placehold_placehold_placehold_placehold_placehold_placehold_placeho --cc=/tmp/build/80754af9/ffmpeg_1587154242452/_build_env/bin/x86_64-conda_cos6-linux-gnu-cc --disable-doc --enable-avresample --enable-gmp --enable-hardcoded-tables --enable-libfreetype --enable-libvpx --enable-pthreads --enable-libopus --enable-postproc --enable-pic --enable-pthreads --enable-shared --enable-static --enable-version3 --enable-zlib --enable-libmp3lame --disable-nonfree --enable-gpl --enable-gnutls --disable-openssl --enable-libopenh264 --enable-libx264\n",
      "  libavutil      56. 31.100 / 56. 31.100\n",
      "  libavcodec     58. 54.100 / 58. 54.100\n",
      "  libavformat    58. 29.100 / 58. 29.100\n",
      "  libavdevice    58.  8.100 / 58.  8.100\n",
      "  libavfilter     7. 57.100 /  7. 57.100\n",
      "  libavresample   4.  0.  0 /  4.  0.  0\n",
      "  libswscale      5.  5.100 /  5.  5.100\n",
      "  libswresample   3.  5.100 /  3.  5.100\n",
      "  libpostproc    55.  5.100 / 55.  5.100\n",
      "Input #0, image2, from '/home/chuongh/vm2m/data/vis/website/3_production_id_4122569_2160p/ours_ss/*.jpg':\n",
      "  Duration: 00:00:08.33, start: 0.000000, bitrate: N/A\n",
      "    Stream #0:0: Video: mjpeg (Baseline), yuvj420p(pc, bt470bg/unknown/unknown), 1920x1080 [SAR 1:1 DAR 16:9], 3 fps, 3 tbr, 3 tbn, 3 tbc\n",
      "Stream mapping:\n",
      "  Stream #0:0 -> #0:0 (mjpeg (native) -> h264 (libx264))\n",
      "Press [q] to stop, [?] for help\n",
      "\u001b[1;34m[swscaler @ 0x5627f8da3280] \u001b[0m\u001b[0;33mdeprecated pixel format used, make sure you did set range correctly\n",
      "\u001b[0m\u001b[1;36m[libx264 @ 0x5627f8d03b40] \u001b[0musing SAR=1/1\n",
      "\u001b[1;36m[libx264 @ 0x5627f8d03b40] \u001b[0musing cpu capabilities: MMX2 SSE2Fast SSSE3 SSE4.2 AVX FMA3 BMI2 AVX2\n",
      "\u001b[1;36m[libx264 @ 0x5627f8d03b40] \u001b[0mprofile High, level 4.0, 4:2:0, 8-bit\n",
      "\u001b[1;36m[libx264 @ 0x5627f8d03b40] \u001b[0m264 - core 157 - H.264/MPEG-4 AVC codec - Copyleft 2003-2018 - http://www.videolan.org/x264.html - options: cabac=1 ref=3 deblock=1:0:0 analyse=0x3:0x113 me=hex subme=7 psy=1 psy_rd=1.00:0.00 mixed_ref=1 me_range=16 chroma_me=1 trellis=1 8x8dct=1 cqm=0 deadzone=21,11 fast_pskip=1 chroma_qp_offset=-2 threads=34 lookahead_threads=5 sliced_threads=0 nr=0 decimate=1 interlaced=0 bluray_compat=0 constrained_intra=0 bframes=3 b_pyramid=2 b_adapt=1 b_bias=0 direct=1 weightb=1 open_gop=0 weightp=2 keyint=250 keyint_min=3 scenecut=40 intra_refresh=0 rc_lookahead=40 rc=crf mbtree=1 crf=23.0 qcomp=0.60 qpmin=0 qpmax=69 qpstep=4 ip_ratio=1.40 aq=1:1.00\n",
      "Output #0, mp4, to '/home/chuongh/vm2m/data/vis/website/3_production_id_4122569_2160p/ours_ss.mp4':\n",
      "  Metadata:\n",
      "    encoder         : Lavf58.29.100\n",
      "    Stream #0:0: Video: h264 (libx264) (avc1 / 0x31637661), yuv420p, 1920x1080 [SAR 1:1 DAR 16:9], q=-1--1, 3 fps, 12288 tbn, 3 tbc\n",
      "    Metadata:\n",
      "      encoder         : Lavc58.54.100 libx264\n",
      "    Side data:\n",
      "      cpb: bitrate max/min/avg: 0/0/0 buffer size: 0 vbv_delay: -1\n",
      "frame=   25 fps=0.0 q=-1.0 Lsize=    1229kB time=00:00:07.33 bitrate=1372.9kbits/s speed=11.8x    \n",
      "video:1228kB audio:0kB subtitle:0kB other streams:0kB global headers:0kB muxing overhead: 0.093051%\n",
      "\u001b[1;36m[libx264 @ 0x5627f8d03b40] \u001b[0mframe I:1     Avg QP:10.41  size:136711\n",
      "\u001b[1;36m[libx264 @ 0x5627f8d03b40] \u001b[0mframe P:6     Avg QP:15.28  size: 82138\n",
      "\u001b[1;36m[libx264 @ 0x5627f8d03b40] \u001b[0mframe B:18    Avg QP:15.80  size: 34842\n",
      "\u001b[1;36m[libx264 @ 0x5627f8d03b40] \u001b[0mconsecutive B-frames:  4.0%  0.0%  0.0% 96.0%\n",
      "\u001b[1;36m[libx264 @ 0x5627f8d03b40] \u001b[0mmb I  I16..4: 50.5% 43.4%  6.1%\n",
      "\u001b[1;36m[libx264 @ 0x5627f8d03b40] \u001b[0mmb P  I16..4:  1.0% 10.3%  1.4%  P16..4:  7.8%  7.6%  5.3%  0.0%  0.0%    skip:66.6%\n",
      "\u001b[1;36m[libx264 @ 0x5627f8d03b40] \u001b[0mmb B  I16..4:  0.2%  1.0%  0.3%  B16..8: 14.1%  6.8%  2.2%  direct: 3.6%  skip:71.8%  L0:35.8% L1:34.6% BI:29.6%\n",
      "\u001b[1;36m[libx264 @ 0x5627f8d03b40] \u001b[0m8x8 transform intra:60.3% inter:54.7%\n",
      "\u001b[1;36m[libx264 @ 0x5627f8d03b40] \u001b[0mcoded y,uvDC,uvAC intra: 51.0% 55.4% 45.5% inter: 12.6% 15.6% 9.7%\n",
      "\u001b[1;36m[libx264 @ 0x5627f8d03b40] \u001b[0mi16 v,h,dc,p: 88%  8%  3%  1%\n",
      "\u001b[1;36m[libx264 @ 0x5627f8d03b40] \u001b[0mi8 v,h,dc,ddl,ddr,vr,hd,vl,hu: 22%  9% 25%  5%  9%  9%  8%  6%  7%\n",
      "\u001b[1;36m[libx264 @ 0x5627f8d03b40] \u001b[0mi4 v,h,dc,ddl,ddr,vr,hd,vl,hu: 18% 14% 14%  8% 12% 10%  9%  8%  7%\n",
      "\u001b[1;36m[libx264 @ 0x5627f8d03b40] \u001b[0mi8c dc,h,v,p: 62% 15% 17%  6%\n",
      "\u001b[1;36m[libx264 @ 0x5627f8d03b40] \u001b[0mWeighted P-Frames: Y:0.0% UV:0.0%\n",
      "\u001b[1;36m[libx264 @ 0x5627f8d03b40] \u001b[0mref P L0: 49.5% 18.3% 22.0% 10.2%\n",
      "\u001b[1;36m[libx264 @ 0x5627f8d03b40] \u001b[0mref B L0: 88.5%  8.7%  2.7%\n",
      "\u001b[1;36m[libx264 @ 0x5627f8d03b40] \u001b[0mref B L1: 94.6%  5.4%\n",
      "\u001b[1;36m[libx264 @ 0x5627f8d03b40] \u001b[0mkb/s:1206.43\n"
     ]
    }
   ],
   "source": [
    "for subdir in ['video', 'instmatt', 'sparsemat_hr', 'mgm_single_tcvom', 'mgm_stacked_tcvom', 'ours_ss']:\n",
    "    input = os.path.join(outdir, video_name, subdir)\n",
    "    !ffmpeg -y -framerate 3 -pattern_type glob -i \"{input}/*.jpg\" -c:v libx264 -vf \"pad=ceil(iw/2)*2:ceil(ih/2)*2\" -pix_fmt yuv420p {input}.mp4"
   ]
  },
  {
   "cell_type": "markdown",
   "metadata": {},
   "source": [
    "# 6_production_id_4880458_2160p"
   ]
  },
  {
   "cell_type": "code",
   "execution_count": 47,
   "metadata": {},
   "outputs": [],
   "source": [
    "# Prepare video with each mask overlayed\n",
    "video_name = \"6_production_id_4880458_2160p\"\n",
    "data_dir = \"/home/chuongh/vm2m/data/vis/real_qual\"\n",
    "outdir = \"/home/chuongh/vm2m/data/vis/website\"\n",
    "mask_names = [\"00.png\", \"02.png\", \"05.png\", \"01.png\"]\n",
    "\n",
    "frame_names = sorted(os.listdir(os.path.join(data_dir, \"images\", video_name)))\n",
    "\n",
    "colors = [(255, 0, 255), (255, 255, 0), (0, 165, 255), (255, 255, 255)]\n",
    "for frame_name in frame_names:\n",
    "    if int(frame_name.replace(\".jpg\", \"\")) < 0 or int(frame_name.replace(\".jpg\", \"\")) > 120:\n",
    "        continue\n",
    "    frame = cv2.imread(os.path.join(data_dir, \"images\", video_name, frame_name))\n",
    "    frame = frame[:, 590:]\n",
    "    # load all masks\n",
    "    all_overlays = []\n",
    "    \n",
    "    for i, mask_name in enumerate(mask_names):\n",
    "        mask = cv2.imread(os.path.join(data_dir, \"masks\", video_name, frame_name.replace(\".jpg\", \"\"), mask_name), cv2.IMREAD_GRAYSCALE)\n",
    "        color = colors[i]\n",
    "        color = np.array(color)[None, None]\n",
    "        mask = mask[:, 590:, None]\n",
    "        mask = (mask > 0) * color\n",
    "        frame[mask > 0] = mask[mask > 0] * 0.7 + frame[mask > 0] * 0.3\n",
    "    #     all_overlays.append(overlay)\n",
    "    # all_overlays = np.concatenate(all_overlays, axis=1)\n",
    "    all_overlays = resize_padding(frame)\n",
    "\n",
    "    out_path = os.path.join(outdir, video_name, \"video\", frame_name)\n",
    "    os.makedirs(os.path.dirname(out_path), exist_ok=True)\n",
    "    cv2.imwrite(out_path, all_overlays)"
   ]
  },
  {
   "cell_type": "code",
   "execution_count": 50,
   "metadata": {},
   "outputs": [],
   "source": [
    "crop_sizes = [[250, 555], [435, 915], [755, 1285], [1120, 1672]]\n",
    "process_frames_with_crops(frame_names, video_name, 0, 120, \"instmatt\", outdir, mask_names, crop_sizes)"
   ]
  },
  {
   "cell_type": "code",
   "execution_count": 51,
   "metadata": {},
   "outputs": [],
   "source": [
    "process_frames_with_crops(frame_names, video_name, 0, 120, \"sparsemat_hr\", outdir, mask_names, crop_sizes)"
   ]
  },
  {
   "cell_type": "code",
   "execution_count": 52,
   "metadata": {},
   "outputs": [],
   "source": [
    "process_frames_with_crops(frame_names, video_name, 0, 120, \"mgm_single_tcvom\", outdir, mask_names, crop_sizes)"
   ]
  },
  {
   "cell_type": "code",
   "execution_count": 53,
   "metadata": {},
   "outputs": [],
   "source": [
    "process_frames_with_crops(frame_names, video_name, 0, 120, \"mgm_stacked_tcvom\", outdir, mask_names, crop_sizes)"
   ]
  },
  {
   "cell_type": "code",
   "execution_count": 54,
   "metadata": {},
   "outputs": [],
   "source": [
    "process_frames_with_crops(frame_names, video_name, 0, 120, \"ours_tokens\", outdir, mask_names, crop_sizes)"
   ]
  },
  {
   "cell_type": "code",
   "execution_count": 55,
   "metadata": {},
   "outputs": [
    {
     "name": "stdout",
     "output_type": "stream",
     "text": [
      "ffmpeg version 4.2.2 Copyright (c) 2000-2019 the FFmpeg developers\n",
      "  built with gcc 7.3.0 (crosstool-NG 1.23.0.449-a04d0)\n",
      "  configuration: --prefix=/tmp/build/80754af9/ffmpeg_1587154242452/_h_env_placehold_placehold_placehold_placehold_placehold_placehold_placehold_placehold_placehold_placehold_placehold_placehold_placehold_placehold_placehold_placehold_placehold_placehold_placehold_placehold_placeho --cc=/tmp/build/80754af9/ffmpeg_1587154242452/_build_env/bin/x86_64-conda_cos6-linux-gnu-cc --disable-doc --enable-avresample --enable-gmp --enable-hardcoded-tables --enable-libfreetype --enable-libvpx --enable-pthreads --enable-libopus --enable-postproc --enable-pic --enable-pthreads --enable-shared --enable-static --enable-version3 --enable-zlib --enable-libmp3lame --disable-nonfree --enable-gpl --enable-gnutls --disable-openssl --enable-libopenh264 --enable-libx264\n",
      "  libavutil      56. 31.100 / 56. 31.100\n",
      "  libavcodec     58. 54.100 / 58. 54.100\n",
      "  libavformat    58. 29.100 / 58. 29.100\n",
      "  libavdevice    58.  8.100 / 58.  8.100\n",
      "  libavfilter     7. 57.100 /  7. 57.100\n",
      "  libavresample   4.  0.  0 /  4.  0.  0\n",
      "  libswscale      5.  5.100 /  5.  5.100\n",
      "  libswresample   3.  5.100 /  3.  5.100\n",
      "  libpostproc    55.  5.100 / 55.  5.100\n",
      "Input #0, image2, from '/home/chuongh/vm2m/data/vis/website/6_production_id_4880458_2160p/video/*.jpg':\n",
      "  Duration: 00:00:08.33, start: 0.000000, bitrate: N/A\n",
      "    Stream #0:0: Video: mjpeg (Baseline), yuvj420p(pc, bt470bg/unknown/unknown), 1920x1080 [SAR 1:1 DAR 16:9], 3 fps, 3 tbr, 3 tbn, 3 tbc\n",
      "Stream mapping:\n",
      "  Stream #0:0 -> #0:0 (mjpeg (native) -> h264 (libx264))\n",
      "Press [q] to stop, [?] for help\n",
      "\u001b[1;34m[swscaler @ 0x564c9b365fc0] \u001b[0m\u001b[0;33mdeprecated pixel format used, make sure you did set range correctly\n",
      "\u001b[0m\u001b[1;36m[libx264 @ 0x564c9b2cab40] \u001b[0musing SAR=1/1\n",
      "\u001b[1;36m[libx264 @ 0x564c9b2cab40] \u001b[0musing cpu capabilities: MMX2 SSE2Fast SSSE3 SSE4.2 AVX FMA3 BMI2 AVX2\n",
      "\u001b[1;36m[libx264 @ 0x564c9b2cab40] \u001b[0mprofile High, level 4.0, 4:2:0, 8-bit\n",
      "\u001b[1;36m[libx264 @ 0x564c9b2cab40] \u001b[0m264 - core 157 - H.264/MPEG-4 AVC codec - Copyleft 2003-2018 - http://www.videolan.org/x264.html - options: cabac=1 ref=3 deblock=1:0:0 analyse=0x3:0x113 me=hex subme=7 psy=1 psy_rd=1.00:0.00 mixed_ref=1 me_range=16 chroma_me=1 trellis=1 8x8dct=1 cqm=0 deadzone=21,11 fast_pskip=1 chroma_qp_offset=-2 threads=34 lookahead_threads=5 sliced_threads=0 nr=0 decimate=1 interlaced=0 bluray_compat=0 constrained_intra=0 bframes=3 b_pyramid=2 b_adapt=1 b_bias=0 direct=1 weightb=1 open_gop=0 weightp=2 keyint=250 keyint_min=3 scenecut=40 intra_refresh=0 rc_lookahead=40 rc=crf mbtree=1 crf=23.0 qcomp=0.60 qpmin=0 qpmax=69 qpstep=4 ip_ratio=1.40 aq=1:1.00\n",
      "Output #0, mp4, to '/home/chuongh/vm2m/data/vis/website/6_production_id_4880458_2160p/video.mp4':\n",
      "  Metadata:\n",
      "    encoder         : Lavf58.29.100\n",
      "    Stream #0:0: Video: h264 (libx264) (avc1 / 0x31637661), yuv420p, 1920x1080 [SAR 1:1 DAR 16:9], q=-1--1, 3 fps, 12288 tbn, 3 tbc\n",
      "    Metadata:\n",
      "      encoder         : Lavc58.54.100 libx264\n",
      "    Side data:\n",
      "      cpb: bitrate max/min/avg: 0/0/0 buffer size: 0 vbv_delay: -1\n",
      "frame=   25 fps=0.0 q=-1.0 Lsize=    1056kB time=00:00:07.33 bitrate=1179.9kbits/s speed=10.5x    \n",
      "video:1055kB audio:0kB subtitle:0kB other streams:0kB global headers:0kB muxing overhead: 0.108294%\n",
      "\u001b[1;36m[libx264 @ 0x564c9b2cab40] \u001b[0mframe I:1     Avg QP:15.96  size:111676\n",
      "\u001b[1;36m[libx264 @ 0x564c9b2cab40] \u001b[0mframe P:6     Avg QP:16.05  size: 70389\n",
      "\u001b[1;36m[libx264 @ 0x564c9b2cab40] \u001b[0mframe B:18    Avg QP:17.01  size: 30317\n",
      "\u001b[1;36m[libx264 @ 0x564c9b2cab40] \u001b[0mconsecutive B-frames:  4.0%  0.0%  0.0% 96.0%\n",
      "\u001b[1;36m[libx264 @ 0x564c9b2cab40] \u001b[0mmb I  I16..4:  9.8% 73.8% 16.3%\n",
      "\u001b[1;36m[libx264 @ 0x564c9b2cab40] \u001b[0mmb P  I16..4:  2.9% 15.5%  3.2%  P16..4: 24.1% 17.5%  8.3%  0.0%  0.0%    skip:28.4%\n",
      "\u001b[1;36m[libx264 @ 0x564c9b2cab40] \u001b[0mmb B  I16..4:  0.7%  1.7%  0.4%  B16..8: 30.4% 13.7%  2.7%  direct: 5.7%  skip:44.8%  L0:44.3% L1:42.1% BI:13.6%\n",
      "\u001b[1;36m[libx264 @ 0x564c9b2cab40] \u001b[0m8x8 transform intra:70.6% inter:70.0%\n",
      "\u001b[1;36m[libx264 @ 0x564c9b2cab40] \u001b[0mcoded y,uvDC,uvAC intra: 49.7% 69.4% 50.2% inter: 17.4% 28.1% 9.6%\n",
      "\u001b[1;36m[libx264 @ 0x564c9b2cab40] \u001b[0mi16 v,h,dc,p: 41% 32% 11% 16%\n",
      "\u001b[1;36m[libx264 @ 0x564c9b2cab40] \u001b[0mi8 v,h,dc,ddl,ddr,vr,hd,vl,hu: 25% 19% 32%  3%  4%  4%  4%  4%  4%\n",
      "\u001b[1;36m[libx264 @ 0x564c9b2cab40] \u001b[0mi4 v,h,dc,ddl,ddr,vr,hd,vl,hu: 34% 21% 18%  4%  6%  6%  4%  4%  3%\n",
      "\u001b[1;36m[libx264 @ 0x564c9b2cab40] \u001b[0mi8c dc,h,v,p: 55% 20% 18%  6%\n",
      "\u001b[1;36m[libx264 @ 0x564c9b2cab40] \u001b[0mWeighted P-Frames: Y:0.0% UV:0.0%\n",
      "\u001b[1;36m[libx264 @ 0x564c9b2cab40] \u001b[0mref P L0: 57.0%  7.8% 20.6% 14.5%\n",
      "\u001b[1;36m[libx264 @ 0x564c9b2cab40] \u001b[0mref B L0: 85.6% 11.1%  3.3%\n",
      "\u001b[1;36m[libx264 @ 0x564c9b2cab40] \u001b[0mref B L1: 94.0%  6.0%\n",
      "\u001b[1;36m[libx264 @ 0x564c9b2cab40] \u001b[0mkb/s:1036.53\n",
      "ffmpeg version 4.2.2 Copyright (c) 2000-2019 the FFmpeg developers\n",
      "  built with gcc 7.3.0 (crosstool-NG 1.23.0.449-a04d0)\n",
      "  configuration: --prefix=/tmp/build/80754af9/ffmpeg_1587154242452/_h_env_placehold_placehold_placehold_placehold_placehold_placehold_placehold_placehold_placehold_placehold_placehold_placehold_placehold_placehold_placehold_placehold_placehold_placehold_placehold_placehold_placeho --cc=/tmp/build/80754af9/ffmpeg_1587154242452/_build_env/bin/x86_64-conda_cos6-linux-gnu-cc --disable-doc --enable-avresample --enable-gmp --enable-hardcoded-tables --enable-libfreetype --enable-libvpx --enable-pthreads --enable-libopus --enable-postproc --enable-pic --enable-pthreads --enable-shared --enable-static --enable-version3 --enable-zlib --enable-libmp3lame --disable-nonfree --enable-gpl --enable-gnutls --disable-openssl --enable-libopenh264 --enable-libx264\n",
      "  libavutil      56. 31.100 / 56. 31.100\n",
      "  libavcodec     58. 54.100 / 58. 54.100\n",
      "  libavformat    58. 29.100 / 58. 29.100\n",
      "  libavdevice    58.  8.100 / 58.  8.100\n",
      "  libavfilter     7. 57.100 /  7. 57.100\n",
      "  libavresample   4.  0.  0 /  4.  0.  0\n",
      "  libswscale      5.  5.100 /  5.  5.100\n",
      "  libswresample   3.  5.100 /  3.  5.100\n",
      "  libpostproc    55.  5.100 / 55.  5.100\n",
      "Input #0, image2, from '/home/chuongh/vm2m/data/vis/website/6_production_id_4880458_2160p/instmatt/*.jpg':\n",
      "  Duration: 00:00:08.33, start: 0.000000, bitrate: N/A\n",
      "    Stream #0:0: Video: mjpeg (Baseline), yuvj420p(pc, bt470bg/unknown/unknown), 1920x1080 [SAR 1:1 DAR 16:9], 3 fps, 3 tbr, 3 tbn, 3 tbc\n",
      "Stream mapping:\n",
      "  Stream #0:0 -> #0:0 (mjpeg (native) -> h264 (libx264))\n",
      "Press [q] to stop, [?] for help\n",
      "\u001b[1;34m[swscaler @ 0x563109ff9380] \u001b[0m\u001b[0;33mdeprecated pixel format used, make sure you did set range correctly\n",
      "\u001b[0m\u001b[1;36m[libx264 @ 0x563109f5eb40] \u001b[0musing SAR=1/1\n",
      "\u001b[1;36m[libx264 @ 0x563109f5eb40] \u001b[0musing cpu capabilities: MMX2 SSE2Fast SSSE3 SSE4.2 AVX FMA3 BMI2 AVX2\n",
      "\u001b[1;36m[libx264 @ 0x563109f5eb40] \u001b[0mprofile High, level 4.0, 4:2:0, 8-bit\n",
      "\u001b[1;36m[libx264 @ 0x563109f5eb40] \u001b[0m264 - core 157 - H.264/MPEG-4 AVC codec - Copyleft 2003-2018 - http://www.videolan.org/x264.html - options: cabac=1 ref=3 deblock=1:0:0 analyse=0x3:0x113 me=hex subme=7 psy=1 psy_rd=1.00:0.00 mixed_ref=1 me_range=16 chroma_me=1 trellis=1 8x8dct=1 cqm=0 deadzone=21,11 fast_pskip=1 chroma_qp_offset=-2 threads=34 lookahead_threads=5 sliced_threads=0 nr=0 decimate=1 interlaced=0 bluray_compat=0 constrained_intra=0 bframes=3 b_pyramid=2 b_adapt=1 b_bias=0 direct=1 weightb=1 open_gop=0 weightp=2 keyint=250 keyint_min=3 scenecut=40 intra_refresh=0 rc_lookahead=40 rc=crf mbtree=1 crf=23.0 qcomp=0.60 qpmin=0 qpmax=69 qpstep=4 ip_ratio=1.40 aq=1:1.00\n",
      "Output #0, mp4, to '/home/chuongh/vm2m/data/vis/website/6_production_id_4880458_2160p/instmatt.mp4':\n",
      "  Metadata:\n",
      "    encoder         : Lavf58.29.100\n",
      "    Stream #0:0: Video: h264 (libx264) (avc1 / 0x31637661), yuv420p, 1920x1080 [SAR 1:1 DAR 16:9], q=-1--1, 3 fps, 12288 tbn, 3 tbc\n",
      "    Metadata:\n",
      "      encoder         : Lavc58.54.100 libx264\n",
      "    Side data:\n",
      "      cpb: bitrate max/min/avg: 0/0/0 buffer size: 0 vbv_delay: -1\n",
      "frame=   25 fps=0.0 q=-1.0 Lsize=     923kB time=00:00:07.33 bitrate=1030.9kbits/s speed=11.7x    \n",
      "video:922kB audio:0kB subtitle:0kB other streams:0kB global headers:0kB muxing overhead: 0.122261%\n",
      "\u001b[1;36m[libx264 @ 0x563109f5eb40] \u001b[0mframe I:1     Avg QP:10.16  size:111946\n",
      "\u001b[1;36m[libx264 @ 0x563109f5eb40] \u001b[0mframe P:6     Avg QP:13.24  size: 67219\n",
      "\u001b[1;36m[libx264 @ 0x563109f5eb40] \u001b[0mframe B:18    Avg QP:16.55  size: 23775\n",
      "\u001b[1;36m[libx264 @ 0x563109f5eb40] \u001b[0mconsecutive B-frames:  4.0%  0.0%  0.0% 96.0%\n",
      "\u001b[1;36m[libx264 @ 0x563109f5eb40] \u001b[0mmb I  I16..4: 48.6% 41.2% 10.1%\n",
      "\u001b[1;36m[libx264 @ 0x563109f5eb40] \u001b[0mmb P  I16..4:  1.7%  9.3%  1.6%  P16..4: 12.9% 12.9%  7.1%  0.0%  0.0%    skip:54.5%\n",
      "\u001b[1;36m[libx264 @ 0x563109f5eb40] \u001b[0mmb B  I16..4:  0.1%  0.9%  0.2%  B16..8: 20.6%  8.7%  2.1%  direct: 4.3%  skip:63.1%  L0:36.6% L1:37.2% BI:26.2%\n",
      "\u001b[1;36m[libx264 @ 0x563109f5eb40] \u001b[0m8x8 transform intra:57.1% inter:59.0%\n",
      "\u001b[1;36m[libx264 @ 0x563109f5eb40] \u001b[0mcoded y,uvDC,uvAC intra: 51.4% 54.5% 43.2% inter: 15.5% 20.2% 8.0%\n",
      "\u001b[1;36m[libx264 @ 0x563109f5eb40] \u001b[0mi16 v,h,dc,p: 94%  2%  3%  1%\n",
      "\u001b[1;36m[libx264 @ 0x563109f5eb40] \u001b[0mi8 v,h,dc,ddl,ddr,vr,hd,vl,hu: 30% 10% 24%  4%  6%  8%  5%  8%  5%\n",
      "\u001b[1;36m[libx264 @ 0x563109f5eb40] \u001b[0mi4 v,h,dc,ddl,ddr,vr,hd,vl,hu: 33% 12% 15%  5%  9% 10%  6%  7%  4%\n",
      "\u001b[1;36m[libx264 @ 0x563109f5eb40] \u001b[0mi8c dc,h,v,p: 60% 11% 23%  5%\n",
      "\u001b[1;36m[libx264 @ 0x563109f5eb40] \u001b[0mWeighted P-Frames: Y:0.0% UV:0.0%\n",
      "\u001b[1;36m[libx264 @ 0x563109f5eb40] \u001b[0mref P L0: 53.9% 17.5% 20.1%  8.5%\n",
      "\u001b[1;36m[libx264 @ 0x563109f5eb40] \u001b[0mref B L0: 90.2%  8.0%  1.8%\n",
      "\u001b[1;36m[libx264 @ 0x563109f5eb40] \u001b[0mref B L1: 97.4%  2.6%\n",
      "\u001b[1;36m[libx264 @ 0x563109f5eb40] \u001b[0mkb/s:905.48\n",
      "ffmpeg version 4.2.2 Copyright (c) 2000-2019 the FFmpeg developers\n",
      "  built with gcc 7.3.0 (crosstool-NG 1.23.0.449-a04d0)\n",
      "  configuration: --prefix=/tmp/build/80754af9/ffmpeg_1587154242452/_h_env_placehold_placehold_placehold_placehold_placehold_placehold_placehold_placehold_placehold_placehold_placehold_placehold_placehold_placehold_placehold_placehold_placehold_placehold_placehold_placehold_placeho --cc=/tmp/build/80754af9/ffmpeg_1587154242452/_build_env/bin/x86_64-conda_cos6-linux-gnu-cc --disable-doc --enable-avresample --enable-gmp --enable-hardcoded-tables --enable-libfreetype --enable-libvpx --enable-pthreads --enable-libopus --enable-postproc --enable-pic --enable-pthreads --enable-shared --enable-static --enable-version3 --enable-zlib --enable-libmp3lame --disable-nonfree --enable-gpl --enable-gnutls --disable-openssl --enable-libopenh264 --enable-libx264\n",
      "  libavutil      56. 31.100 / 56. 31.100\n",
      "  libavcodec     58. 54.100 / 58. 54.100\n",
      "  libavformat    58. 29.100 / 58. 29.100\n",
      "  libavdevice    58.  8.100 / 58.  8.100\n",
      "  libavfilter     7. 57.100 /  7. 57.100\n",
      "  libavresample   4.  0.  0 /  4.  0.  0\n",
      "  libswscale      5.  5.100 /  5.  5.100\n",
      "  libswresample   3.  5.100 /  3.  5.100\n",
      "  libpostproc    55.  5.100 / 55.  5.100\n",
      "Input #0, image2, from '/home/chuongh/vm2m/data/vis/website/6_production_id_4880458_2160p/sparsemat_hr/*.jpg':\n",
      "  Duration: 00:00:08.33, start: 0.000000, bitrate: N/A\n",
      "    Stream #0:0: Video: mjpeg (Baseline), yuvj420p(pc, bt470bg/unknown/unknown), 1920x1080 [SAR 1:1 DAR 16:9], 3 fps, 3 tbr, 3 tbn, 3 tbc\n",
      "Stream mapping:\n",
      "  Stream #0:0 -> #0:0 (mjpeg (native) -> h264 (libx264))\n",
      "Press [q] to stop, [?] for help\n",
      "\u001b[1;34m[swscaler @ 0x55a8cf37b780] \u001b[0m\u001b[0;33mdeprecated pixel format used, make sure you did set range correctly\n",
      "\u001b[0m\u001b[1;36m[libx264 @ 0x55a8cf2dd0c0] \u001b[0musing SAR=1/1\n",
      "\u001b[1;36m[libx264 @ 0x55a8cf2dd0c0] \u001b[0musing cpu capabilities: MMX2 SSE2Fast SSSE3 SSE4.2 AVX FMA3 BMI2 AVX2\n",
      "\u001b[1;36m[libx264 @ 0x55a8cf2dd0c0] \u001b[0mprofile High, level 4.0, 4:2:0, 8-bit\n",
      "\u001b[1;36m[libx264 @ 0x55a8cf2dd0c0] \u001b[0m264 - core 157 - H.264/MPEG-4 AVC codec - Copyleft 2003-2018 - http://www.videolan.org/x264.html - options: cabac=1 ref=3 deblock=1:0:0 analyse=0x3:0x113 me=hex subme=7 psy=1 psy_rd=1.00:0.00 mixed_ref=1 me_range=16 chroma_me=1 trellis=1 8x8dct=1 cqm=0 deadzone=21,11 fast_pskip=1 chroma_qp_offset=-2 threads=34 lookahead_threads=5 sliced_threads=0 nr=0 decimate=1 interlaced=0 bluray_compat=0 constrained_intra=0 bframes=3 b_pyramid=2 b_adapt=1 b_bias=0 direct=1 weightb=1 open_gop=0 weightp=2 keyint=250 keyint_min=3 scenecut=40 intra_refresh=0 rc_lookahead=40 rc=crf mbtree=1 crf=23.0 qcomp=0.60 qpmin=0 qpmax=69 qpstep=4 ip_ratio=1.40 aq=1:1.00\n",
      "Output #0, mp4, to '/home/chuongh/vm2m/data/vis/website/6_production_id_4880458_2160p/sparsemat_hr.mp4':\n",
      "  Metadata:\n",
      "    encoder         : Lavf58.29.100\n",
      "    Stream #0:0: Video: h264 (libx264) (avc1 / 0x31637661), yuv420p, 1920x1080 [SAR 1:1 DAR 16:9], q=-1--1, 3 fps, 12288 tbn, 3 tbc\n",
      "    Metadata:\n",
      "      encoder         : Lavc58.54.100 libx264\n",
      "    Side data:\n",
      "      cpb: bitrate max/min/avg: 0/0/0 buffer size: 0 vbv_delay: -1\n",
      "frame=   25 fps=0.0 q=-1.0 Lsize=     968kB time=00:00:07.33 bitrate=1081.5kbits/s speed=10.8x    \n",
      "video:967kB audio:0kB subtitle:0kB other streams:0kB global headers:0kB muxing overhead: 0.116539%\n",
      "\u001b[1;36m[libx264 @ 0x55a8cf2dd0c0] \u001b[0mframe I:1     Avg QP: 9.94  size:113585\n",
      "\u001b[1;36m[libx264 @ 0x55a8cf2dd0c0] \u001b[0mframe P:6     Avg QP:13.22  size: 69328\n",
      "\u001b[1;36m[libx264 @ 0x55a8cf2dd0c0] \u001b[0mframe B:18    Avg QP:16.60  size: 25556\n",
      "\u001b[1;36m[libx264 @ 0x55a8cf2dd0c0] \u001b[0mconsecutive B-frames:  4.0%  0.0%  0.0% 96.0%\n",
      "\u001b[1;36m[libx264 @ 0x55a8cf2dd0c0] \u001b[0mmb I  I16..4: 49.4% 39.6% 10.9%\n",
      "\u001b[1;36m[libx264 @ 0x55a8cf2dd0c0] \u001b[0mmb P  I16..4:  1.8%  9.4%  1.9%  P16..4: 12.9% 12.9%  7.1%  0.0%  0.0%    skip:54.1%\n",
      "\u001b[1;36m[libx264 @ 0x55a8cf2dd0c0] \u001b[0mmb B  I16..4:  0.2%  1.0%  0.3%  B16..8: 20.6%  8.6%  2.2%  direct: 3.8%  skip:63.3%  L0:37.3% L1:37.7% BI:25.0%\n",
      "\u001b[1;36m[libx264 @ 0x55a8cf2dd0c0] \u001b[0m8x8 transform intra:55.5% inter:58.6%\n",
      "\u001b[1;36m[libx264 @ 0x55a8cf2dd0c0] \u001b[0mcoded y,uvDC,uvAC intra: 51.5% 57.0% 45.3% inter: 14.7% 19.9% 8.6%\n",
      "\u001b[1;36m[libx264 @ 0x55a8cf2dd0c0] \u001b[0mi16 v,h,dc,p: 93%  2%  3%  1%\n",
      "\u001b[1;36m[libx264 @ 0x55a8cf2dd0c0] \u001b[0mi8 v,h,dc,ddl,ddr,vr,hd,vl,hu: 30% 10% 22%  4%  6%  8%  5%  8%  6%\n",
      "\u001b[1;36m[libx264 @ 0x55a8cf2dd0c0] \u001b[0mi4 v,h,dc,ddl,ddr,vr,hd,vl,hu: 33% 11% 15%  5%  9% 10%  6%  7%  4%\n",
      "\u001b[1;36m[libx264 @ 0x55a8cf2dd0c0] \u001b[0mi8c dc,h,v,p: 59% 11% 24%  5%\n",
      "\u001b[1;36m[libx264 @ 0x55a8cf2dd0c0] \u001b[0mWeighted P-Frames: Y:0.0% UV:0.0%\n",
      "\u001b[1;36m[libx264 @ 0x55a8cf2dd0c0] \u001b[0mref P L0: 53.7% 17.7% 19.6%  9.0%\n",
      "\u001b[1;36m[libx264 @ 0x55a8cf2dd0c0] \u001b[0mref B L0: 90.3%  8.0%  1.6%\n",
      "\u001b[1;36m[libx264 @ 0x55a8cf2dd0c0] \u001b[0mref B L1: 97.0%  3.0%\n",
      "\u001b[1;36m[libx264 @ 0x55a8cf2dd0c0] \u001b[0mkb/s:949.97\n",
      "ffmpeg version 4.2.2 Copyright (c) 2000-2019 the FFmpeg developers\n",
      "  built with gcc 7.3.0 (crosstool-NG 1.23.0.449-a04d0)\n",
      "  configuration: --prefix=/tmp/build/80754af9/ffmpeg_1587154242452/_h_env_placehold_placehold_placehold_placehold_placehold_placehold_placehold_placehold_placehold_placehold_placehold_placehold_placehold_placehold_placehold_placehold_placehold_placehold_placehold_placehold_placeho --cc=/tmp/build/80754af9/ffmpeg_1587154242452/_build_env/bin/x86_64-conda_cos6-linux-gnu-cc --disable-doc --enable-avresample --enable-gmp --enable-hardcoded-tables --enable-libfreetype --enable-libvpx --enable-pthreads --enable-libopus --enable-postproc --enable-pic --enable-pthreads --enable-shared --enable-static --enable-version3 --enable-zlib --enable-libmp3lame --disable-nonfree --enable-gpl --enable-gnutls --disable-openssl --enable-libopenh264 --enable-libx264\n",
      "  libavutil      56. 31.100 / 56. 31.100\n",
      "  libavcodec     58. 54.100 / 58. 54.100\n",
      "  libavformat    58. 29.100 / 58. 29.100\n",
      "  libavdevice    58.  8.100 / 58.  8.100\n",
      "  libavfilter     7. 57.100 /  7. 57.100\n",
      "  libavresample   4.  0.  0 /  4.  0.  0\n",
      "  libswscale      5.  5.100 /  5.  5.100\n",
      "  libswresample   3.  5.100 /  3.  5.100\n",
      "  libpostproc    55.  5.100 / 55.  5.100\n",
      "Input #0, image2, from '/home/chuongh/vm2m/data/vis/website/6_production_id_4880458_2160p/mgm_single_tcvom/*.jpg':\n",
      "  Duration: 00:00:08.33, start: 0.000000, bitrate: N/A\n",
      "    Stream #0:0: Video: mjpeg (Baseline), yuvj420p(pc, bt470bg/unknown/unknown), 1920x1080 [SAR 1:1 DAR 16:9], 3 fps, 3 tbr, 3 tbn, 3 tbc\n",
      "Stream mapping:\n",
      "  Stream #0:0 -> #0:0 (mjpeg (native) -> h264 (libx264))\n",
      "Press [q] to stop, [?] for help\n",
      "\u001b[1;34m[swscaler @ 0x55713cdc0700] \u001b[0m\u001b[0;33mdeprecated pixel format used, make sure you did set range correctly\n",
      "\u001b[0m\u001b[1;36m[libx264 @ 0x55713cd22040] \u001b[0musing SAR=1/1\n",
      "\u001b[1;36m[libx264 @ 0x55713cd22040] \u001b[0musing cpu capabilities: MMX2 SSE2Fast SSSE3 SSE4.2 AVX FMA3 BMI2 AVX2\n",
      "\u001b[1;36m[libx264 @ 0x55713cd22040] \u001b[0mprofile High, level 4.0, 4:2:0, 8-bit\n",
      "\u001b[1;36m[libx264 @ 0x55713cd22040] \u001b[0m264 - core 157 - H.264/MPEG-4 AVC codec - Copyleft 2003-2018 - http://www.videolan.org/x264.html - options: cabac=1 ref=3 deblock=1:0:0 analyse=0x3:0x113 me=hex subme=7 psy=1 psy_rd=1.00:0.00 mixed_ref=1 me_range=16 chroma_me=1 trellis=1 8x8dct=1 cqm=0 deadzone=21,11 fast_pskip=1 chroma_qp_offset=-2 threads=34 lookahead_threads=5 sliced_threads=0 nr=0 decimate=1 interlaced=0 bluray_compat=0 constrained_intra=0 bframes=3 b_pyramid=2 b_adapt=1 b_bias=0 direct=1 weightb=1 open_gop=0 weightp=2 keyint=250 keyint_min=3 scenecut=40 intra_refresh=0 rc_lookahead=40 rc=crf mbtree=1 crf=23.0 qcomp=0.60 qpmin=0 qpmax=69 qpstep=4 ip_ratio=1.40 aq=1:1.00\n",
      "Output #0, mp4, to '/home/chuongh/vm2m/data/vis/website/6_production_id_4880458_2160p/mgm_single_tcvom.mp4':\n",
      "  Metadata:\n",
      "    encoder         : Lavf58.29.100\n",
      "    Stream #0:0: Video: h264 (libx264) (avc1 / 0x31637661), yuv420p, 1920x1080 [SAR 1:1 DAR 16:9], q=-1--1, 3 fps, 12288 tbn, 3 tbc\n",
      "    Metadata:\n",
      "      encoder         : Lavc58.54.100 libx264\n",
      "    Side data:\n",
      "      cpb: bitrate max/min/avg: 0/0/0 buffer size: 0 vbv_delay: -1\n",
      "frame=   25 fps=0.0 q=-1.0 Lsize=     952kB time=00:00:07.33 bitrate=1063.2kbits/s speed=11.4x    \n",
      "video:951kB audio:0kB subtitle:0kB other streams:0kB global headers:0kB muxing overhead: 0.118551%\n",
      "\u001b[1;36m[libx264 @ 0x55713cd22040] \u001b[0mframe I:1     Avg QP: 9.56  size:114448\n",
      "\u001b[1;36m[libx264 @ 0x55713cd22040] \u001b[0mframe P:6     Avg QP:12.98  size: 69107\n",
      "\u001b[1;36m[libx264 @ 0x55713cd22040] \u001b[0mframe B:18    Avg QP:16.31  size: 24648\n",
      "\u001b[1;36m[libx264 @ 0x55713cd22040] \u001b[0mconsecutive B-frames:  4.0%  0.0%  0.0% 96.0%\n",
      "\u001b[1;36m[libx264 @ 0x55713cd22040] \u001b[0mmb I  I16..4: 51.2% 38.5% 10.4%\n",
      "\u001b[1;36m[libx264 @ 0x55713cd22040] \u001b[0mmb P  I16..4:  1.9% 10.0%  1.7%  P16..4: 13.2% 13.0%  7.2%  0.0%  0.0%    skip:53.0%\n",
      "\u001b[1;36m[libx264 @ 0x55713cd22040] \u001b[0mmb B  I16..4:  0.2%  1.1%  0.3%  B16..8: 21.0%  8.6%  2.2%  direct: 4.2%  skip:62.3%  L0:37.1% L1:37.3% BI:25.6%\n",
      "\u001b[1;36m[libx264 @ 0x55713cd22040] \u001b[0m8x8 transform intra:56.0% inter:59.5%\n",
      "\u001b[1;36m[libx264 @ 0x55713cd22040] \u001b[0mcoded y,uvDC,uvAC intra: 52.1% 58.2% 46.8% inter: 15.3% 20.6% 8.4%\n",
      "\u001b[1;36m[libx264 @ 0x55713cd22040] \u001b[0mi16 v,h,dc,p: 93%  3%  3%  1%\n",
      "\u001b[1;36m[libx264 @ 0x55713cd22040] \u001b[0mi8 v,h,dc,ddl,ddr,vr,hd,vl,hu: 29% 11% 23%  4%  6%  8%  5%  8%  5%\n",
      "\u001b[1;36m[libx264 @ 0x55713cd22040] \u001b[0mi4 v,h,dc,ddl,ddr,vr,hd,vl,hu: 33% 12% 15%  5%  9% 10%  6%  7%  3%\n",
      "\u001b[1;36m[libx264 @ 0x55713cd22040] \u001b[0mi8c dc,h,v,p: 58% 12% 24%  6%\n",
      "\u001b[1;36m[libx264 @ 0x55713cd22040] \u001b[0mWeighted P-Frames: Y:0.0% UV:0.0%\n",
      "\u001b[1;36m[libx264 @ 0x55713cd22040] \u001b[0mref P L0: 54.3% 17.7% 19.4%  8.7%\n",
      "\u001b[1;36m[libx264 @ 0x55713cd22040] \u001b[0mref B L0: 89.7%  8.5%  1.7%\n",
      "\u001b[1;36m[libx264 @ 0x55713cd22040] \u001b[0mref B L1: 97.4%  2.6%\n",
      "\u001b[1;36m[libx264 @ 0x55713cd22040] \u001b[0mkb/s:933.84\n",
      "ffmpeg version 4.2.2 Copyright (c) 2000-2019 the FFmpeg developers\n",
      "  built with gcc 7.3.0 (crosstool-NG 1.23.0.449-a04d0)\n",
      "  configuration: --prefix=/tmp/build/80754af9/ffmpeg_1587154242452/_h_env_placehold_placehold_placehold_placehold_placehold_placehold_placehold_placehold_placehold_placehold_placehold_placehold_placehold_placehold_placehold_placehold_placehold_placehold_placehold_placehold_placeho --cc=/tmp/build/80754af9/ffmpeg_1587154242452/_build_env/bin/x86_64-conda_cos6-linux-gnu-cc --disable-doc --enable-avresample --enable-gmp --enable-hardcoded-tables --enable-libfreetype --enable-libvpx --enable-pthreads --enable-libopus --enable-postproc --enable-pic --enable-pthreads --enable-shared --enable-static --enable-version3 --enable-zlib --enable-libmp3lame --disable-nonfree --enable-gpl --enable-gnutls --disable-openssl --enable-libopenh264 --enable-libx264\n",
      "  libavutil      56. 31.100 / 56. 31.100\n",
      "  libavcodec     58. 54.100 / 58. 54.100\n",
      "  libavformat    58. 29.100 / 58. 29.100\n",
      "  libavdevice    58.  8.100 / 58.  8.100\n",
      "  libavfilter     7. 57.100 /  7. 57.100\n",
      "  libavresample   4.  0.  0 /  4.  0.  0\n",
      "  libswscale      5.  5.100 /  5.  5.100\n",
      "  libswresample   3.  5.100 /  3.  5.100\n",
      "  libpostproc    55.  5.100 / 55.  5.100\n",
      "Input #0, image2, from '/home/chuongh/vm2m/data/vis/website/6_production_id_4880458_2160p/mgm_stacked_tcvom/*.jpg':\n",
      "  Duration: 00:00:08.33, start: 0.000000, bitrate: N/A\n",
      "    Stream #0:0: Video: mjpeg (Baseline), yuvj420p(pc, bt470bg/unknown/unknown), 1920x1080 [SAR 1:1 DAR 16:9], 3 fps, 3 tbr, 3 tbn, 3 tbc\n",
      "Stream mapping:\n",
      "  Stream #0:0 -> #0:0 (mjpeg (native) -> h264 (libx264))\n",
      "Press [q] to stop, [?] for help\n",
      "\u001b[1;34m[swscaler @ 0x55d0359b7880] \u001b[0m\u001b[0;33mdeprecated pixel format used, make sure you did set range correctly\n",
      "\u001b[0m\u001b[1;36m[libx264 @ 0x55d03591a040] \u001b[0musing SAR=1/1\n",
      "\u001b[1;36m[libx264 @ 0x55d03591a040] \u001b[0musing cpu capabilities: MMX2 SSE2Fast SSSE3 SSE4.2 AVX FMA3 BMI2 AVX2\n",
      "\u001b[1;36m[libx264 @ 0x55d03591a040] \u001b[0mprofile High, level 4.0, 4:2:0, 8-bit\n",
      "\u001b[1;36m[libx264 @ 0x55d03591a040] \u001b[0m264 - core 157 - H.264/MPEG-4 AVC codec - Copyleft 2003-2018 - http://www.videolan.org/x264.html - options: cabac=1 ref=3 deblock=1:0:0 analyse=0x3:0x113 me=hex subme=7 psy=1 psy_rd=1.00:0.00 mixed_ref=1 me_range=16 chroma_me=1 trellis=1 8x8dct=1 cqm=0 deadzone=21,11 fast_pskip=1 chroma_qp_offset=-2 threads=34 lookahead_threads=5 sliced_threads=0 nr=0 decimate=1 interlaced=0 bluray_compat=0 constrained_intra=0 bframes=3 b_pyramid=2 b_adapt=1 b_bias=0 direct=1 weightb=1 open_gop=0 weightp=2 keyint=250 keyint_min=3 scenecut=40 intra_refresh=0 rc_lookahead=40 rc=crf mbtree=1 crf=23.0 qcomp=0.60 qpmin=0 qpmax=69 qpstep=4 ip_ratio=1.40 aq=1:1.00\n",
      "Output #0, mp4, to '/home/chuongh/vm2m/data/vis/website/6_production_id_4880458_2160p/mgm_stacked_tcvom.mp4':\n",
      "  Metadata:\n",
      "    encoder         : Lavf58.29.100\n",
      "    Stream #0:0: Video: h264 (libx264) (avc1 / 0x31637661), yuv420p, 1920x1080 [SAR 1:1 DAR 16:9], q=-1--1, 3 fps, 12288 tbn, 3 tbc\n",
      "    Metadata:\n",
      "      encoder         : Lavc58.54.100 libx264\n",
      "    Side data:\n",
      "      cpb: bitrate max/min/avg: 0/0/0 buffer size: 0 vbv_delay: -1\n",
      "frame=   25 fps=0.0 q=-1.0 Lsize=     942kB time=00:00:07.33 bitrate=1051.8kbits/s speed=11.6x    \n",
      "video:940kB audio:0kB subtitle:0kB other streams:0kB global headers:0kB muxing overhead: 0.119829%\n",
      "\u001b[1;36m[libx264 @ 0x55d03591a040] \u001b[0mframe I:1     Avg QP: 9.73  size:113147\n",
      "\u001b[1;36m[libx264 @ 0x55d03591a040] \u001b[0mframe P:6     Avg QP:13.26  size: 68507\n",
      "\u001b[1;36m[libx264 @ 0x55d03591a040] \u001b[0mframe B:18    Avg QP:16.64  size: 24343\n",
      "\u001b[1;36m[libx264 @ 0x55d03591a040] \u001b[0mconsecutive B-frames:  4.0%  0.0%  0.0% 96.0%\n",
      "\u001b[1;36m[libx264 @ 0x55d03591a040] \u001b[0mmb I  I16..4: 50.4% 39.1% 10.5%\n",
      "\u001b[1;36m[libx264 @ 0x55d03591a040] \u001b[0mmb P  I16..4:  1.7%  9.6%  1.8%  P16..4: 12.9% 13.0%  7.0%  0.0%  0.0%    skip:54.0%\n",
      "\u001b[1;36m[libx264 @ 0x55d03591a040] \u001b[0mmb B  I16..4:  0.2%  0.9%  0.3%  B16..8: 20.7%  8.6%  2.1%  direct: 4.0%  skip:63.3%  L0:37.0% L1:37.2% BI:25.8%\n",
      "\u001b[1;36m[libx264 @ 0x55d03591a040] \u001b[0m8x8 transform intra:55.7% inter:59.0%\n",
      "\u001b[1;36m[libx264 @ 0x55d03591a040] \u001b[0mcoded y,uvDC,uvAC intra: 51.4% 56.9% 45.5% inter: 14.9% 20.7% 8.5%\n",
      "\u001b[1;36m[libx264 @ 0x55d03591a040] \u001b[0mi16 v,h,dc,p: 93%  2%  3%  1%\n",
      "\u001b[1;36m[libx264 @ 0x55d03591a040] \u001b[0mi8 v,h,dc,ddl,ddr,vr,hd,vl,hu: 29% 10% 24%  4%  6%  8%  5%  8%  6%\n",
      "\u001b[1;36m[libx264 @ 0x55d03591a040] \u001b[0mi4 v,h,dc,ddl,ddr,vr,hd,vl,hu: 34% 11% 15%  4%  9% 10%  6%  8%  4%\n",
      "\u001b[1;36m[libx264 @ 0x55d03591a040] \u001b[0mi8c dc,h,v,p: 60% 11% 24%  5%\n",
      "\u001b[1;36m[libx264 @ 0x55d03591a040] \u001b[0mWeighted P-Frames: Y:0.0% UV:0.0%\n",
      "\u001b[1;36m[libx264 @ 0x55d03591a040] \u001b[0mref P L0: 54.1% 17.7% 19.7%  8.5%\n",
      "\u001b[1;36m[libx264 @ 0x55d03591a040] \u001b[0mref B L0: 89.7%  8.5%  1.7%\n",
      "\u001b[1;36m[libx264 @ 0x55d03591a040] \u001b[0mref B L1: 97.0%  3.0%\n",
      "\u001b[1;36m[libx264 @ 0x55d03591a040] \u001b[0mkb/s:923.87\n",
      "ffmpeg version 4.2.2 Copyright (c) 2000-2019 the FFmpeg developers\n",
      "  built with gcc 7.3.0 (crosstool-NG 1.23.0.449-a04d0)\n",
      "  configuration: --prefix=/tmp/build/80754af9/ffmpeg_1587154242452/_h_env_placehold_placehold_placehold_placehold_placehold_placehold_placehold_placehold_placehold_placehold_placehold_placehold_placehold_placehold_placehold_placehold_placehold_placehold_placehold_placehold_placeho --cc=/tmp/build/80754af9/ffmpeg_1587154242452/_build_env/bin/x86_64-conda_cos6-linux-gnu-cc --disable-doc --enable-avresample --enable-gmp --enable-hardcoded-tables --enable-libfreetype --enable-libvpx --enable-pthreads --enable-libopus --enable-postproc --enable-pic --enable-pthreads --enable-shared --enable-static --enable-version3 --enable-zlib --enable-libmp3lame --disable-nonfree --enable-gpl --enable-gnutls --disable-openssl --enable-libopenh264 --enable-libx264\n",
      "  libavutil      56. 31.100 / 56. 31.100\n",
      "  libavcodec     58. 54.100 / 58. 54.100\n",
      "  libavformat    58. 29.100 / 58. 29.100\n",
      "  libavdevice    58.  8.100 / 58.  8.100\n",
      "  libavfilter     7. 57.100 /  7. 57.100\n",
      "  libavresample   4.  0.  0 /  4.  0.  0\n",
      "  libswscale      5.  5.100 /  5.  5.100\n",
      "  libswresample   3.  5.100 /  3.  5.100\n",
      "  libpostproc    55.  5.100 / 55.  5.100\n",
      "Input #0, image2, from '/home/chuongh/vm2m/data/vis/website/6_production_id_4880458_2160p/ours_tokens/*.jpg':\n",
      "  Duration: 00:00:08.33, start: 0.000000, bitrate: N/A\n",
      "    Stream #0:0: Video: mjpeg (Baseline), yuvj420p(pc, bt470bg/unknown/unknown), 1920x1080 [SAR 1:1 DAR 16:9], 3 fps, 3 tbr, 3 tbn, 3 tbc\n",
      "Stream mapping:\n",
      "  Stream #0:0 -> #0:0 (mjpeg (native) -> h264 (libx264))\n",
      "Press [q] to stop, [?] for help\n",
      "\u001b[1;34m[swscaler @ 0x5644660497c0] \u001b[0m\u001b[0;33mdeprecated pixel format used, make sure you did set range correctly\n",
      "\u001b[0m\u001b[1;36m[libx264 @ 0x564465faeb40] \u001b[0musing SAR=1/1\n",
      "\u001b[1;36m[libx264 @ 0x564465faeb40] \u001b[0musing cpu capabilities: MMX2 SSE2Fast SSSE3 SSE4.2 AVX FMA3 BMI2 AVX2\n",
      "\u001b[1;36m[libx264 @ 0x564465faeb40] \u001b[0mprofile High, level 4.0, 4:2:0, 8-bit\n",
      "\u001b[1;36m[libx264 @ 0x564465faeb40] \u001b[0m264 - core 157 - H.264/MPEG-4 AVC codec - Copyleft 2003-2018 - http://www.videolan.org/x264.html - options: cabac=1 ref=3 deblock=1:0:0 analyse=0x3:0x113 me=hex subme=7 psy=1 psy_rd=1.00:0.00 mixed_ref=1 me_range=16 chroma_me=1 trellis=1 8x8dct=1 cqm=0 deadzone=21,11 fast_pskip=1 chroma_qp_offset=-2 threads=34 lookahead_threads=5 sliced_threads=0 nr=0 decimate=1 interlaced=0 bluray_compat=0 constrained_intra=0 bframes=3 b_pyramid=2 b_adapt=1 b_bias=0 direct=1 weightb=1 open_gop=0 weightp=2 keyint=250 keyint_min=3 scenecut=40 intra_refresh=0 rc_lookahead=40 rc=crf mbtree=1 crf=23.0 qcomp=0.60 qpmin=0 qpmax=69 qpstep=4 ip_ratio=1.40 aq=1:1.00\n",
      "Output #0, mp4, to '/home/chuongh/vm2m/data/vis/website/6_production_id_4880458_2160p/ours_tokens.mp4':\n",
      "  Metadata:\n",
      "    encoder         : Lavf58.29.100\n",
      "    Stream #0:0: Video: h264 (libx264) (avc1 / 0x31637661), yuv420p, 1920x1080 [SAR 1:1 DAR 16:9], q=-1--1, 3 fps, 12288 tbn, 3 tbc\n",
      "    Metadata:\n",
      "      encoder         : Lavc58.54.100 libx264\n",
      "    Side data:\n",
      "      cpb: bitrate max/min/avg: 0/0/0 buffer size: 0 vbv_delay: -1\n",
      "frame=   25 fps=0.0 q=-1.0 Lsize=     932kB time=00:00:07.33 bitrate=1041.5kbits/s speed=11.3x    \n",
      "video:931kB audio:0kB subtitle:0kB other streams:0kB global headers:0kB muxing overhead: 0.121018%\n",
      "\u001b[1;36m[libx264 @ 0x564465faeb40] \u001b[0mframe I:1     Avg QP:10.18  size:112961\n",
      "\u001b[1;36m[libx264 @ 0x564465faeb40] \u001b[0mframe P:6     Avg QP:13.22  size: 68150\n",
      "\u001b[1;36m[libx264 @ 0x564465faeb40] \u001b[0mframe B:18    Avg QP:16.47  size: 23947\n",
      "\u001b[1;36m[libx264 @ 0x564465faeb40] \u001b[0mconsecutive B-frames:  4.0%  0.0%  0.0% 96.0%\n",
      "\u001b[1;36m[libx264 @ 0x564465faeb40] \u001b[0mmb I  I16..4: 47.4% 42.2% 10.5%\n",
      "\u001b[1;36m[libx264 @ 0x564465faeb40] \u001b[0mmb P  I16..4:  1.6%  9.4%  1.7%  P16..4: 13.2% 12.8%  7.3%  0.0%  0.0%    skip:54.1%\n",
      "\u001b[1;36m[libx264 @ 0x564465faeb40] \u001b[0mmb B  I16..4:  0.2%  0.9%  0.3%  B16..8: 20.9%  8.5%  2.1%  direct: 3.8%  skip:63.4%  L0:37.3% L1:37.1% BI:25.6%\n",
      "\u001b[1;36m[libx264 @ 0x564465faeb40] \u001b[0m8x8 transform intra:57.2% inter:59.0%\n",
      "\u001b[1;36m[libx264 @ 0x564465faeb40] \u001b[0mcoded y,uvDC,uvAC intra: 50.6% 55.7% 43.7% inter: 14.8% 20.1% 8.4%\n",
      "\u001b[1;36m[libx264 @ 0x564465faeb40] \u001b[0mi16 v,h,dc,p: 93%  2%  4%  1%\n",
      "\u001b[1;36m[libx264 @ 0x564465faeb40] \u001b[0mi8 v,h,dc,ddl,ddr,vr,hd,vl,hu: 32% 10% 23%  4%  6%  7%  5%  8%  5%\n",
      "\u001b[1;36m[libx264 @ 0x564465faeb40] \u001b[0mi4 v,h,dc,ddl,ddr,vr,hd,vl,hu: 33% 11% 15%  5%  9% 10%  6%  7%  4%\n",
      "\u001b[1;36m[libx264 @ 0x564465faeb40] \u001b[0mi8c dc,h,v,p: 60% 11% 24%  5%\n",
      "\u001b[1;36m[libx264 @ 0x564465faeb40] \u001b[0mWeighted P-Frames: Y:0.0% UV:0.0%\n",
      "\u001b[1;36m[libx264 @ 0x564465faeb40] \u001b[0mref P L0: 54.3% 17.4% 19.6%  8.7%\n",
      "\u001b[1;36m[libx264 @ 0x564465faeb40] \u001b[0mref B L0: 90.3%  8.0%  1.7%\n",
      "\u001b[1;36m[libx264 @ 0x564465faeb40] \u001b[0mref B L1: 97.4%  2.6%\n",
      "\u001b[1;36m[libx264 @ 0x564465faeb40] \u001b[0mkb/s:914.79\n"
     ]
    }
   ],
   "source": [
    "for subdir in ['video', 'instmatt', 'sparsemat_hr', 'mgm_single_tcvom', 'mgm_stacked_tcvom', 'ours_tokens']:\n",
    "    input = os.path.join(outdir, video_name, subdir)\n",
    "    !ffmpeg -y -framerate 3 -pattern_type glob -i \"{input}/*.jpg\" -c:v libx264 -vf \"pad=ceil(iw/2)*2:ceil(ih/2)*2\" -pix_fmt yuv420p {input}.mp4"
   ]
  },
  {
   "cell_type": "code",
   "execution_count": null,
   "metadata": {},
   "outputs": [],
   "source": []
  }
 ],
 "metadata": {
  "kernelspec": {
   "display_name": "mask2matte",
   "language": "python",
   "name": "python3"
  },
  "language_info": {
   "codemirror_mode": {
    "name": "ipython",
    "version": 3
   },
   "file_extension": ".py",
   "mimetype": "text/x-python",
   "name": "python",
   "nbconvert_exporter": "python",
   "pygments_lexer": "ipython3",
   "version": "3.8.16"
  }
 },
 "nbformat": 4,
 "nbformat_minor": 2
}
